<?xml version="1.0" encoding="UTF-8" standalone="no"?>
<!-- Generator: Adobe Illustrator 24.2.1, SVG Export Plug-In . SVG Version: 6.00 Build 0)  -->

<svg
   version="1.1"
   x="0px"
   y="0px"
   width="1000px"
   height="725px"
   viewBox="0 0 1000 725"
   enable-background="new 0 0 1000 725"
   xml:space="preserve"
   id="svg206"
   sodipodi:docname="anatomy1-2.svg"
   inkscape:version="1.2.2 (b0a8486541, 2022-12-01)"
   xmlns:inkscape="http://www.inkscape.org/namespaces/inkscape"
   xmlns:sodipodi="http://sodipodi.sourceforge.net/DTD/sodipodi-0.dtd"
   xmlns="http://www.w3.org/2000/svg"
   xmlns:svg="http://www.w3.org/2000/svg"
   xmlns:ns="&amp;ns_sfw;"><defs
   id="defs210"><filter
     style="color-interpolation-filters:sRGB;"
     inkscape:label="Colorize"
     id="filter1844"
     x="-0.0042438612"
     y="-0.0067330093"
     width="1.0084936"
     height="1.0134657"><feComposite
       in2="SourceGraphic"
       operator="arithmetic"
       k1="0"
       k2="1"
       result="composite1"
       id="feComposite1830" /><feColorMatrix
       in="composite1"
       values="1"
       type="saturate"
       result="colormatrix1"
       id="feColorMatrix1832" /><feFlood
       flood-opacity="1"
       flood-color="rgb(3,80,49)"
       result="flood1"
       id="feFlood1834" /><feBlend
       in="flood1"
       in2="colormatrix1"
       mode="multiply"
       result="blend1"
       id="feBlend1836" /><feBlend
       in2="blend1"
       mode="screen"
       result="blend2"
       id="feBlend1838" /><feColorMatrix
       in="blend2"
       values="1"
       type="saturate"
       result="colormatrix2"
       id="feColorMatrix1840" /><feComposite
       in="colormatrix2"
       in2="SourceGraphic"
       operator="in"
       k2="1"
       result="fbSourceGraphic"
       id="feComposite1842" /><feColorMatrix
       result="fbSourceGraphicAlpha"
       in="fbSourceGraphic"
       values="0 0 0 -1 0 0 0 0 -1 0 0 0 0 -1 0 0 0 0 1 0"
       id="feColorMatrix1958" /><feComposite
       in2="fbSourceGraphic"
       id="feComposite1960"
       operator="arithmetic"
       k1="0"
       k2="1"
       result="composite1"
       in="fbSourceGraphic" /><feColorMatrix
       id="feColorMatrix1962"
       in="composite1"
       values="1"
       type="saturate"
       result="colormatrix1" /><feFlood
       id="feFlood1964"
       flood-opacity="1"
       flood-color="rgb(3,80,49)"
       result="flood1" /><feBlend
       in2="colormatrix1"
       id="feBlend1966"
       in="flood1"
       mode="multiply"
       result="blend1" /><feBlend
       in2="blend1"
       id="feBlend1968"
       mode="screen"
       result="blend2" /><feColorMatrix
       id="feColorMatrix1970"
       in="blend2"
       values="1"
       type="saturate"
       result="colormatrix2" /><feComposite
       in2="fbSourceGraphic"
       id="feComposite1972"
       in="colormatrix2"
       operator="in"
       k2="1"
       result="composite2" /></filter><filter
     style="color-interpolation-filters:sRGB;"
     inkscape:label="Colorize"
     id="filter1860"
     x="-0.0033343859"
     y="-0.0052954045"
     width="1.0066722"
     height="1.0105854"><feComposite
       in2="SourceGraphic"
       operator="arithmetic"
       k1="0"
       k2="1"
       result="composite1"
       id="feComposite1846" /><feColorMatrix
       in="composite1"
       values="1"
       type="saturate"
       result="colormatrix1"
       id="feColorMatrix1848" /><feFlood
       flood-opacity="1"
       flood-color="rgb(3,80,49)"
       result="flood1"
       id="feFlood1850" /><feBlend
       in="flood1"
       in2="colormatrix1"
       mode="multiply"
       result="blend1"
       id="feBlend1852" /><feBlend
       in2="blend1"
       mode="screen"
       result="blend2"
       id="feBlend1854" /><feColorMatrix
       in="blend2"
       values="1"
       type="saturate"
       result="colormatrix2"
       id="feColorMatrix1856" /><feComposite
       in="colormatrix2"
       in2="SourceGraphic"
       operator="in"
       k2="1"
       result="fbSourceGraphic"
       id="feComposite1858" /><feColorMatrix
       result="fbSourceGraphicAlpha"
       in="fbSourceGraphic"
       values="0 0 0 -1 0 0 0 0 -1 0 0 0 0 -1 0 0 0 0 1 0"
       id="feColorMatrix1974" /><feComposite
       in2="fbSourceGraphic"
       id="feComposite1976"
       operator="arithmetic"
       k1="0"
       k2="1"
       result="composite1"
       in="fbSourceGraphic" /><feColorMatrix
       id="feColorMatrix1978"
       in="composite1"
       values="1"
       type="saturate"
       result="colormatrix1" /><feFlood
       id="feFlood1980"
       flood-opacity="1"
       flood-color="rgb(3,80,49)"
       result="flood1" /><feBlend
       in2="colormatrix1"
       id="feBlend1982"
       in="flood1"
       mode="multiply"
       result="blend1" /><feBlend
       in2="blend1"
       id="feBlend1984"
       mode="screen"
       result="blend2" /><feColorMatrix
       id="feColorMatrix1986"
       in="blend2"
       values="1"
       type="saturate"
       result="colormatrix2" /><feComposite
       in2="fbSourceGraphic"
       id="feComposite1988"
       in="colormatrix2"
       operator="in"
       k2="1"
       result="composite2" /></filter><filter
     style="color-interpolation-filters:sRGB;"
     inkscape:label="Colorize"
     id="filter1876"><feComposite
       in2="SourceGraphic"
       operator="arithmetic"
       k1="0"
       k2="1"
       result="composite1"
       id="feComposite1862" /><feColorMatrix
       in="composite1"
       values="1"
       type="saturate"
       result="colormatrix1"
       id="feColorMatrix1864" /><feFlood
       flood-opacity="1"
       flood-color="rgb(3,80,49)"
       result="flood1"
       id="feFlood1866" /><feBlend
       in="flood1"
       in2="colormatrix1"
       mode="multiply"
       result="blend1"
       id="feBlend1868" /><feBlend
       in2="blend1"
       mode="screen"
       result="blend2"
       id="feBlend1870" /><feColorMatrix
       in="blend2"
       values="1"
       type="saturate"
       result="colormatrix2"
       id="feColorMatrix1872" /><feComposite
       in="colormatrix2"
       in2="SourceGraphic"
       operator="in"
       k2="1"
       result="fbSourceGraphic"
       id="feComposite1874" /><feColorMatrix
       result="fbSourceGraphicAlpha"
       in="fbSourceGraphic"
       values="0 0 0 -1 0 0 0 0 -1 0 0 0 0 -1 0 0 0 0 1 0"
       id="feColorMatrix1990" /><feComposite
       in2="fbSourceGraphic"
       id="feComposite1992"
       operator="arithmetic"
       k1="0"
       k2="1"
       result="composite1"
       in="fbSourceGraphic" /><feColorMatrix
       id="feColorMatrix1994"
       in="composite1"
       values="1"
       type="saturate"
       result="colormatrix1" /><feFlood
       id="feFlood1996"
       flood-opacity="1"
       flood-color="rgb(3,80,49)"
       result="flood1" /><feBlend
       in2="colormatrix1"
       id="feBlend1998"
       in="flood1"
       mode="multiply"
       result="blend1" /><feBlend
       in2="blend1"
       id="feBlend2000"
       mode="screen"
       result="blend2" /><feColorMatrix
       id="feColorMatrix2002"
       in="blend2"
       values="1"
       type="saturate"
       result="colormatrix2" /><feComposite
       in2="fbSourceGraphic"
       id="feComposite2004"
       in="colormatrix2"
       operator="in"
       k2="1"
       result="composite2" /></filter><filter
     style="color-interpolation-filters:sRGB;"
     inkscape:label="Colorize"
     id="filter1892"><feComposite
       in2="SourceGraphic"
       operator="arithmetic"
       k1="0"
       k2="1"
       result="composite1"
       id="feComposite1878" /><feColorMatrix
       in="composite1"
       values="1"
       type="saturate"
       result="colormatrix1"
       id="feColorMatrix1880" /><feFlood
       flood-opacity="1"
       flood-color="rgb(3,80,49)"
       result="flood1"
       id="feFlood1882" /><feBlend
       in="flood1"
       in2="colormatrix1"
       mode="multiply"
       result="blend1"
       id="feBlend1884" /><feBlend
       in2="blend1"
       mode="screen"
       result="blend2"
       id="feBlend1886" /><feColorMatrix
       in="blend2"
       values="1"
       type="saturate"
       result="colormatrix2"
       id="feColorMatrix1888" /><feComposite
       in="colormatrix2"
       in2="SourceGraphic"
       operator="in"
       k2="1"
       result="fbSourceGraphic"
       id="feComposite1890" /><feColorMatrix
       result="fbSourceGraphicAlpha"
       in="fbSourceGraphic"
       values="0 0 0 -1 0 0 0 0 -1 0 0 0 0 -1 0 0 0 0 1 0"
       id="feColorMatrix2006" /><feComposite
       in2="fbSourceGraphic"
       id="feComposite2008"
       operator="arithmetic"
       k1="0"
       k2="1"
       result="composite1"
       in="fbSourceGraphic" /><feColorMatrix
       id="feColorMatrix2010"
       in="composite1"
       values="1"
       type="saturate"
       result="colormatrix1" /><feFlood
       id="feFlood2012"
       flood-opacity="1"
       flood-color="rgb(3,80,49)"
       result="flood1" /><feBlend
       in2="colormatrix1"
       id="feBlend2014"
       in="flood1"
       mode="multiply"
       result="blend1" /><feBlend
       in2="blend1"
       id="feBlend2016"
       mode="screen"
       result="blend2" /><feColorMatrix
       id="feColorMatrix2018"
       in="blend2"
       values="1"
       type="saturate"
       result="colormatrix2" /><feComposite
       in2="fbSourceGraphic"
       id="feComposite2020"
       in="colormatrix2"
       operator="in"
       k2="1"
       result="composite2" /></filter><filter
     style="color-interpolation-filters:sRGB;"
     inkscape:label="Colorize"
     id="filter1908"
     x="-0.0019436264"
     y="-inf"
     width="1.0038873"
     height="inf"><feComposite
       in2="SourceGraphic"
       operator="arithmetic"
       k1="0"
       k2="1"
       result="composite1"
       id="feComposite1894" /><feColorMatrix
       in="composite1"
       values="1"
       type="saturate"
       result="colormatrix1"
       id="feColorMatrix1896" /><feFlood
       flood-opacity="1"
       flood-color="rgb(3,80,49)"
       result="flood1"
       id="feFlood1898" /><feBlend
       in="flood1"
       in2="colormatrix1"
       mode="multiply"
       result="blend1"
       id="feBlend1900" /><feBlend
       in2="blend1"
       mode="screen"
       result="blend2"
       id="feBlend1902" /><feColorMatrix
       in="blend2"
       values="1"
       type="saturate"
       result="colormatrix2"
       id="feColorMatrix1904" /><feComposite
       in="colormatrix2"
       in2="SourceGraphic"
       operator="in"
       k2="1"
       result="fbSourceGraphic"
       id="feComposite1906" /><feColorMatrix
       result="fbSourceGraphicAlpha"
       in="fbSourceGraphic"
       values="0 0 0 -1 0 0 0 0 -1 0 0 0 0 -1 0 0 0 0 1 0"
       id="feColorMatrix2022" /><feComposite
       in2="fbSourceGraphic"
       id="feComposite2024"
       operator="arithmetic"
       k1="0"
       k2="1"
       result="composite1"
       in="fbSourceGraphic" /><feColorMatrix
       id="feColorMatrix2026"
       in="composite1"
       values="1"
       type="saturate"
       result="colormatrix1" /><feFlood
       id="feFlood2028"
       flood-opacity="1"
       flood-color="rgb(3,80,49)"
       result="flood1" /><feBlend
       in2="colormatrix1"
       id="feBlend2030"
       in="flood1"
       mode="multiply"
       result="blend1" /><feBlend
       in2="blend1"
       id="feBlend2032"
       mode="screen"
       result="blend2" /><feColorMatrix
       id="feColorMatrix2034"
       in="blend2"
       values="1"
       type="saturate"
       result="colormatrix2" /><feComposite
       in2="fbSourceGraphic"
       id="feComposite2036"
       in="colormatrix2"
       operator="in"
       k2="1"
       result="composite2" /></filter><filter
     style="color-interpolation-filters:sRGB;"
     inkscape:label="Colorize"
     id="filter1924"
     x="-0.010496478"
     y="-0.0021913298"
     width="1.0201835"
     height="1.0050549"><feComposite
       in2="SourceGraphic"
       operator="arithmetic"
       k1="0"
       k2="1"
       result="composite1"
       id="feComposite1910" /><feColorMatrix
       in="composite1"
       values="1"
       type="saturate"
       result="colormatrix1"
       id="feColorMatrix1912" /><feFlood
       flood-opacity="1"
       flood-color="rgb(3,80,49)"
       result="flood1"
       id="feFlood1914" /><feBlend
       in="flood1"
       in2="colormatrix1"
       mode="multiply"
       result="blend1"
       id="feBlend1916" /><feBlend
       in2="blend1"
       mode="screen"
       result="blend2"
       id="feBlend1918" /><feColorMatrix
       in="blend2"
       values="1"
       type="saturate"
       result="colormatrix2"
       id="feColorMatrix1920" /><feComposite
       in="colormatrix2"
       in2="SourceGraphic"
       operator="in"
       k2="1"
       result="fbSourceGraphic"
       id="feComposite1922" /><feColorMatrix
       result="fbSourceGraphicAlpha"
       in="fbSourceGraphic"
       values="0 0 0 -1 0 0 0 0 -1 0 0 0 0 -1 0 0 0 0 1 0"
       id="feColorMatrix2038" /><feComposite
       in2="fbSourceGraphic"
       id="feComposite2040"
       operator="arithmetic"
       k1="0"
       k2="1"
       result="composite1"
       in="fbSourceGraphic" /><feColorMatrix
       id="feColorMatrix2042"
       in="composite1"
       values="1"
       type="saturate"
       result="colormatrix1" /><feFlood
       id="feFlood2044"
       flood-opacity="1"
       flood-color="rgb(3,80,49)"
       result="flood1" /><feBlend
       in2="colormatrix1"
       id="feBlend2046"
       in="flood1"
       mode="multiply"
       result="blend1" /><feBlend
       in2="blend1"
       id="feBlend2048"
       mode="screen"
       result="blend2" /><feColorMatrix
       id="feColorMatrix2050"
       in="blend2"
       values="1"
       type="saturate"
       result="colormatrix2" /><feComposite
       in2="fbSourceGraphic"
       id="feComposite2052"
       in="colormatrix2"
       operator="in"
       k2="1"
       result="composite2" /></filter><filter
     style="color-interpolation-filters:sRGB;"
     inkscape:label="Colorize"
     id="filter1940"
     x="-0.0027718798"
     y="0"
     width="1.0055437"
     height="1"><feComposite
       in2="SourceGraphic"
       operator="arithmetic"
       k1="0"
       k2="1"
       result="composite1"
       id="feComposite1926" /><feColorMatrix
       in="composite1"
       values="1"
       type="saturate"
       result="colormatrix1"
       id="feColorMatrix1928" /><feFlood
       flood-opacity="1"
       flood-color="rgb(3,80,49)"
       result="flood1"
       id="feFlood1930" /><feBlend
       in="flood1"
       in2="colormatrix1"
       mode="multiply"
       result="blend1"
       id="feBlend1932" /><feBlend
       in2="blend1"
       mode="screen"
       result="blend2"
       id="feBlend1934" /><feColorMatrix
       in="blend2"
       values="1"
       type="saturate"
       result="colormatrix2"
       id="feColorMatrix1936" /><feComposite
       in="colormatrix2"
       in2="SourceGraphic"
       operator="in"
       k2="1"
       result="fbSourceGraphic"
       id="feComposite1938" /><feColorMatrix
       result="fbSourceGraphicAlpha"
       in="fbSourceGraphic"
       values="0 0 0 -1 0 0 0 0 -1 0 0 0 0 -1 0 0 0 0 1 0"
       id="feColorMatrix2054" /><feComposite
       in2="fbSourceGraphic"
       id="feComposite2056"
       operator="arithmetic"
       k1="0"
       k2="1"
       result="composite1"
       in="fbSourceGraphic" /><feColorMatrix
       id="feColorMatrix2058"
       in="composite1"
       values="1"
       type="saturate"
       result="colormatrix1" /><feFlood
       id="feFlood2060"
       flood-opacity="1"
       flood-color="rgb(3,80,49)"
       result="flood1" /><feBlend
       in2="colormatrix1"
       id="feBlend2062"
       in="flood1"
       mode="multiply"
       result="blend1" /><feBlend
       in2="blend1"
       id="feBlend2064"
       mode="screen"
       result="blend2" /><feColorMatrix
       id="feColorMatrix2066"
       in="blend2"
       values="1"
       type="saturate"
       result="colormatrix2" /><feComposite
       in2="fbSourceGraphic"
       id="feComposite2068"
       in="colormatrix2"
       operator="in"
       k2="1"
       result="composite2" /></filter><filter
     style="color-interpolation-filters:sRGB;"
     inkscape:label="Colorize"
     id="filter1956"><feComposite
       in2="SourceGraphic"
       operator="arithmetic"
       k1="0"
       k2="1"
       result="composite1"
       id="feComposite1942" /><feColorMatrix
       in="composite1"
       values="1"
       type="saturate"
       result="colormatrix1"
       id="feColorMatrix1944" /><feFlood
       flood-opacity="1"
       flood-color="rgb(3,80,49)"
       result="flood1"
       id="feFlood1946" /><feBlend
       in="flood1"
       in2="colormatrix1"
       mode="multiply"
       result="blend1"
       id="feBlend1948" /><feBlend
       in2="blend1"
       mode="screen"
       result="blend2"
       id="feBlend1950" /><feColorMatrix
       in="blend2"
       values="1"
       type="saturate"
       result="colormatrix2"
       id="feColorMatrix1952" /><feComposite
       in="colormatrix2"
       in2="SourceGraphic"
       operator="in"
       k2="1"
       result="fbSourceGraphic"
       id="feComposite1954" /><feColorMatrix
       result="fbSourceGraphicAlpha"
       in="fbSourceGraphic"
       values="0 0 0 -1 0 0 0 0 -1 0 0 0 0 -1 0 0 0 0 1 0"
       id="feColorMatrix2070" /><feComposite
       in2="fbSourceGraphic"
       id="feComposite2072"
       operator="arithmetic"
       k1="0"
       k2="1"
       result="composite1"
       in="fbSourceGraphic" /><feColorMatrix
       id="feColorMatrix2074"
       in="composite1"
       values="1"
       type="saturate"
       result="colormatrix1" /><feFlood
       id="feFlood2076"
       flood-opacity="1"
       flood-color="rgb(3,80,49)"
       result="flood1" /><feBlend
       in2="colormatrix1"
       id="feBlend2078"
       in="flood1"
       mode="multiply"
       result="blend1" /><feBlend
       in2="blend1"
       id="feBlend2080"
       mode="screen"
       result="blend2" /><feColorMatrix
       id="feColorMatrix2082"
       in="blend2"
       values="1"
       type="saturate"
       result="colormatrix2" /><feComposite
       in2="fbSourceGraphic"
       id="feComposite2084"
       in="colormatrix2"
       operator="in"
       k2="1"
       result="composite2" /></filter></defs><sodipodi:namedview
   id="namedview208"
   pagecolor="#ffffff"
   bordercolor="#666666"
   borderopacity="1.0"
   inkscape:showpageshadow="2"
   inkscape:pageopacity="0.0"
   inkscape:pagecheckerboard="0"
   inkscape:deskcolor="#d1d1d1"
   showgrid="false"
   inkscape:zoom="1.2055172"
   inkscape:cx="673.56979"
   inkscape:cy="357.52288"
   inkscape:window-width="1920"
   inkscape:window-height="1012"
   inkscape:window-x="1920"
   inkscape:window-y="32"
   inkscape:window-maximized="1"
   inkscape:current-layer="svg206" />
<metadata
   id="metadata2">
	<ns:sfw>
		<ns:slices />
		<ns:sliceSourceBounds
   bottomLeftOrigin="true"
   height="12677.386"
   width="8058.342"
   x="-3961.342"
   y="-5120" />
	</ns:sfw>
</metadata>

<g
   id="N-TEXT"
   style="filter:url(#filter1956)">
</g>
<g
   id="N-DIMENSIONS"
   style="filter:url(#filter1940)">
	<g
   id="g106">
		<g
   id="g51">
			<g
   id="POLYLINE_637_">
				<g
   id="g16">
					<g
   id="g14">
						
							<line
   fill="none"
   stroke="#FB8604"
   stroke-width="2.5"
   stroke-linecap="round"
   stroke-linejoin="round"
   x1="367.089"
   y1="376.214"
   x2="368.589"
   y2="376.21"
   id="line8" />
						
							<line
   fill="none"
   stroke="#FB8604"
   stroke-width="2.5"
   stroke-linecap="round"
   stroke-linejoin="round"
   stroke-dasharray="2.9234,4.8724"
   x1="373.461"
   y1="376.199"
   x2="386.617"
   y2="376.167"
   id="line10" />
						
							<line
   fill="none"
   stroke="#FB8604"
   stroke-width="2.5"
   stroke-linecap="round"
   stroke-linejoin="round"
   x1="389.053"
   y1="376.161"
   x2="390.553"
   y2="376.157"
   id="line12" />
					</g>
				</g>
			</g>
			<g
   id="g49">
				<g
   id="g47">
					<path
   fill="#FB8604"
   d="M330.033,338.94c-0.078-0.078-0.117-0.177-0.117-0.297l-0.001-0.54c0-0.275,0.149-0.54,0.449-0.792       l3.919-3.911c0.887-0.758,1.498-1.376,1.833-1.856c0.336-0.479,0.503-0.991,0.502-1.531c-0.001-0.708-0.198-1.262-0.596-1.664       c-0.396-0.4-0.973-0.601-1.729-0.6c-0.721,0.001-1.289,0.211-1.709,0.632c-0.42,0.42-0.678,0.985-0.772,1.692       c-0.023,0.133-0.083,0.234-0.179,0.307c-0.097,0.072-0.192,0.107-0.288,0.108l-0.864,0.001c-0.108,0-0.198-0.035-0.27-0.107       c-0.072-0.072-0.108-0.156-0.109-0.252c0.023-0.636,0.194-1.251,0.511-1.846c0.317-0.595,0.788-1.081,1.411-1.46       c0.624-0.379,1.379-0.568,2.268-0.569c1.344-0.002,2.355,0.347,3.034,1.049c0.679,0.701,1.02,1.591,1.021,2.671       c0.001,0.756-0.182,1.438-0.546,2.044c-0.365,0.606-0.938,1.246-1.717,1.919l-3.542,3.605l5.67-0.008       c0.132,0,0.234,0.036,0.308,0.107c0.071,0.072,0.107,0.175,0.107,0.307l0.001,0.684c0,0.12-0.039,0.219-0.117,0.297       s-0.177,0.117-0.297,0.117l-7.884,0.011C330.21,339.058,330.111,339.019,330.033,338.94z"
   id="path19" />
					<path
   fill="#FB8604"
   d="M341.84,337.863c-0.715-0.905-1.098-2.089-1.147-3.554l-0.021-1.548l0.017-1.602       c0.034-1.452,0.412-2.632,1.138-3.539c0.725-0.906,1.854-1.361,3.392-1.363c1.548-0.002,2.685,0.449,3.411,1.354       c0.728,0.905,1.11,2.084,1.148,3.536c0.012,0.336,0.019,0.87,0.02,1.602c0.001,0.708-0.004,1.225-0.016,1.548       c-0.046,1.465-0.426,2.649-1.139,3.557s-1.848,1.361-3.407,1.363C343.687,339.22,342.555,338.77,341.84,337.863z        M347.319,336.803c0.467-0.611,0.711-1.477,0.733-2.593c0.012-0.348,0.018-0.846,0.017-1.494       c-0.001-0.659-0.009-1.151-0.021-1.476c-0.024-1.104-0.275-1.964-0.749-2.582c-0.475-0.617-1.169-0.925-2.08-0.924       c-0.912,0.001-1.602,0.311-2.068,0.93c-0.468,0.618-0.712,1.48-0.735,2.584l-0.016,1.476l0.02,1.494       c0.025,1.116,0.273,1.979,0.741,2.591c0.469,0.611,1.16,0.916,2.072,0.915C346.157,337.723,346.852,337.416,347.319,336.803z"
   id="path21" />
					<path
   fill="#FB8604"
   d="M352.017,329.562c-0.054-0.072-0.069-0.162-0.046-0.271l0.394-2.521       c0.048-0.348,0.215-0.522,0.503-0.522l1.151-0.002c0.084,0,0.153,0.03,0.207,0.09c0.055,0.061,0.082,0.133,0.082,0.217       c0,0.12-0.018,0.216-0.054,0.288l-0.934,2.431c-0.059,0.132-0.125,0.231-0.196,0.297c-0.072,0.066-0.181,0.1-0.324,0.1       l-0.558,0.001C352.146,329.669,352.07,329.633,352.017,329.562z M354.843,329.558c-0.054-0.072-0.069-0.162-0.046-0.271       l0.393-2.52c0.048-0.349,0.216-0.523,0.503-0.523l1.152-0.002c0.084,0,0.153,0.03,0.207,0.09       c0.054,0.061,0.082,0.133,0.082,0.217c0,0.12-0.018,0.216-0.054,0.288l-0.934,2.431c-0.059,0.132-0.125,0.231-0.196,0.298       c-0.072,0.066-0.181,0.099-0.324,0.099l-0.559,0.001C354.972,329.665,354.896,329.629,354.843,329.558z"
   id="path23" />
					<path
   fill="#FB8604"
   d="M357.818,334.233c-0.078-0.072-0.117-0.168-0.117-0.288l-0.001-0.647c0-0.12,0.038-0.219,0.116-0.298       c0.077-0.077,0.177-0.116,0.297-0.116l5.399-0.008c0.12,0,0.219,0.039,0.297,0.116c0.078,0.079,0.118,0.178,0.118,0.298       l0.001,0.647c0,0.12-0.039,0.216-0.117,0.288s-0.177,0.108-0.297,0.108l-5.399,0.008       C357.995,334.342,357.896,334.306,357.818,334.233z"
   id="path25" />
					<path
   fill="#FB8604"
   d="M365.456,338.895c-0.078-0.078-0.117-0.177-0.117-0.297l-0.001-0.54c0-0.275,0.149-0.54,0.449-0.793       l3.919-3.911c0.887-0.757,1.498-1.376,1.833-1.855c0.336-0.48,0.503-0.991,0.502-1.531c-0.001-0.708-0.198-1.263-0.596-1.664       c-0.396-0.401-0.973-0.602-1.729-0.601c-0.721,0.001-1.289,0.212-1.709,0.632c-0.42,0.421-0.678,0.985-0.772,1.692       c-0.023,0.133-0.083,0.235-0.179,0.308c-0.097,0.072-0.192,0.107-0.288,0.107l-0.864,0.001c-0.108,0-0.198-0.035-0.27-0.106       c-0.072-0.072-0.108-0.156-0.109-0.252c0.023-0.636,0.194-1.252,0.511-1.847c0.317-0.594,0.788-1.08,1.411-1.46       c0.624-0.379,1.379-0.568,2.268-0.569c1.344-0.002,2.355,0.348,3.034,1.049s1.02,1.592,1.021,2.672       c0.001,0.756-0.182,1.438-0.546,2.043c-0.365,0.607-0.938,1.247-1.717,1.92l-3.542,3.604l5.67-0.007       c0.132,0,0.234,0.036,0.308,0.106c0.071,0.072,0.107,0.175,0.107,0.307l0.001,0.684c0,0.12-0.039,0.219-0.117,0.297       c-0.078,0.079-0.177,0.118-0.297,0.118l-7.884,0.01C365.633,339.012,365.534,338.973,365.456,338.895z"
   id="path27" />
					<path
   fill="#FB8604"
   d="M381.729,338.873c-0.079-0.078-0.117-0.177-0.117-0.297l-0.004-2.628l-5.851,0.008       c-0.12,0-0.219-0.039-0.297-0.117s-0.117-0.176-0.117-0.296l-0.001-0.666c0-0.168,0.065-0.349,0.197-0.541l5.408-7.639       c0.061-0.096,0.15-0.171,0.271-0.225c0.119-0.056,0.252-0.082,0.396-0.082l1.225-0.002c0.132,0,0.233,0.035,0.306,0.107       s0.107,0.174,0.107,0.307l0.01,7.632l1.639-0.002c0.119,0,0.219,0.038,0.297,0.116c0.079,0.078,0.118,0.177,0.118,0.297       l0.001,0.684c0,0.12-0.039,0.219-0.117,0.297s-0.178,0.118-0.297,0.118l-1.639,0.002l0.004,2.628       c0,0.12-0.039,0.219-0.116,0.297c-0.078,0.078-0.178,0.117-0.297,0.117l-0.828,0.002       C381.905,338.99,381.806,338.951,381.729,338.873z M377.213,334.479l4.41-0.006l-0.008-6.265L377.213,334.479z"
   id="path29" />
					<path
   fill="#FB8604"
   d="M386.99,329.516c-0.054-0.072-0.069-0.162-0.046-0.271l0.394-2.521       c0.048-0.348,0.215-0.522,0.503-0.522l1.151-0.002c0.084,0,0.153,0.03,0.207,0.09c0.055,0.061,0.082,0.133,0.082,0.217       c0,0.12-0.018,0.216-0.054,0.288l-0.934,2.431c-0.059,0.132-0.125,0.231-0.196,0.297c-0.072,0.067-0.181,0.1-0.324,0.1       l-0.558,0.001C387.119,329.623,387.044,329.587,386.99,329.516z M389.816,329.512c-0.054-0.072-0.069-0.162-0.046-0.271       l0.393-2.52c0.048-0.348,0.216-0.523,0.503-0.523l1.152-0.002c0.084,0,0.153,0.03,0.207,0.09       c0.054,0.061,0.082,0.133,0.082,0.217c0,0.12-0.018,0.216-0.054,0.288l-0.934,2.431c-0.059,0.132-0.125,0.232-0.196,0.298       c-0.072,0.066-0.181,0.099-0.324,0.099l-0.559,0.001C389.945,329.619,389.87,329.583,389.816,329.512z"
   id="path31" />
					<path
   fill="#FB8604"
   d="M320.693,359.644c-0.66-0.323-1.165-0.746-1.515-1.268c-0.348-0.521-0.535-1.082-0.56-1.682v-0.036       c0-0.096,0.036-0.174,0.107-0.234c0.072-0.061,0.156-0.091,0.253-0.091l0.882-0.001c0.252,0,0.414,0.132,0.485,0.396       c0.182,0.647,0.516,1.131,1.001,1.447c0.486,0.317,1.048,0.477,1.685,0.476c0.815-0.001,1.493-0.251,2.033-0.75       c0.538-0.499,0.808-1.186,0.807-2.062c-0.001-0.805-0.272-1.443-0.812-1.917c-0.54-0.473-1.22-0.709-2.035-0.708       c-0.433,0-0.78,0.056-1.043,0.163c-0.265,0.109-0.534,0.266-0.811,0.47c-0.156,0.12-0.284,0.208-0.386,0.262       c-0.103,0.054-0.213,0.081-0.333,0.081l-0.864,0.001c-0.107,0.001-0.204-0.038-0.288-0.116       c-0.085-0.078-0.121-0.171-0.108-0.279l0.55-5.995c0.036-0.3,0.186-0.449,0.45-0.449l6.228-0.009       c0.132,0,0.234,0.035,0.307,0.107c0.071,0.072,0.107,0.174,0.107,0.307l0.001,0.666c0,0.119-0.039,0.216-0.117,0.287       c-0.078,0.072-0.176,0.108-0.296,0.108l-5.184,0.007l-0.32,3.619c0.576-0.409,1.351-0.614,2.322-0.616       c0.804-0.001,1.536,0.157,2.196,0.476c0.66,0.316,1.186,0.78,1.576,1.392c0.392,0.612,0.587,1.338,0.588,2.178       c0.001,0.889-0.192,1.653-0.582,2.295c-0.389,0.644-0.928,1.131-1.617,1.461c-0.69,0.331-1.479,0.497-2.366,0.498       C322.134,360.127,321.353,359.966,320.693,359.644z"
   id="path33" />
					<path
   fill="#FB8604"
   d="M332.843,359.816c-0.071-0.078-0.107-0.177-0.107-0.297l-0.014-10.152l-3.021,2.326       c-0.084,0.072-0.173,0.108-0.269,0.108c-0.108,0-0.211-0.061-0.308-0.18l-0.432-0.558c-0.062-0.084-0.091-0.168-0.091-0.252       c0-0.132,0.06-0.24,0.18-0.324l3.902-3.028c0.132-0.084,0.288-0.127,0.468-0.127l0.846-0.001c0.12,0,0.219,0.039,0.298,0.116       c0.077,0.078,0.116,0.177,0.116,0.297l0.016,11.771c0,0.12-0.039,0.22-0.116,0.298c-0.079,0.078-0.178,0.117-0.298,0.117       l-0.882,0.001C333.011,359.933,332.915,359.894,332.843,359.816z"
   id="path35" />
					<path
   fill="#FB8604"
   d="M337.166,355.14c-0.078-0.072-0.117-0.168-0.117-0.288l-0.001-0.647c0-0.12,0.038-0.219,0.116-0.298       c0.077-0.077,0.177-0.116,0.297-0.117l5.399-0.007c0.12,0,0.219,0.039,0.297,0.116c0.078,0.079,0.118,0.178,0.118,0.298       l0.001,0.647c0,0.12-0.039,0.216-0.117,0.288s-0.177,0.108-0.297,0.108l-5.399,0.007       C337.343,355.248,337.243,355.212,337.166,355.14z"
   id="path37" />
					<path
   fill="#FB8604"
   d="M347.557,359.509c-0.702-0.389-1.236-0.913-1.604-1.573c-0.367-0.659-0.551-1.378-0.552-2.158       c-0.001-1.032,0.411-2.137,1.237-3.314l3.431-4.793c0.013-0.012,0.046-0.054,0.1-0.126s0.123-0.129,0.207-0.171       s0.18-0.062,0.288-0.062l0.882-0.002c0.108,0,0.194,0.039,0.261,0.116c0.066,0.078,0.1,0.172,0.1,0.279       c0,0.061-0.03,0.139-0.091,0.234l-2.623,3.676c0.312-0.073,0.66-0.109,1.044-0.11c0.876-0.001,1.647,0.193,2.314,0.582       c0.666,0.39,1.183,0.905,1.55,1.546c0.367,0.643,0.551,1.347,0.552,2.114c0.001,0.769-0.181,1.486-0.546,2.152       c-0.365,0.667-0.896,1.198-1.591,1.595c-0.696,0.397-1.518,0.596-2.465,0.598C349.09,360.092,348.259,359.898,347.557,359.509z        M351.487,358.271c0.444-0.217,0.798-0.538,1.062-0.965c0.263-0.426,0.395-0.939,0.394-1.539       c-0.001-0.588-0.137-1.096-0.407-1.521c-0.271-0.425-0.628-0.749-1.071-0.97c-0.445-0.222-0.926-0.332-1.441-0.331       c-0.516,0-0.996,0.112-1.438,0.334c-0.444,0.223-0.799,0.548-1.062,0.974s-0.394,0.934-0.393,1.521       c0.001,0.6,0.133,1.113,0.396,1.539c0.265,0.426,0.619,0.746,1.063,0.961c0.444,0.216,0.925,0.322,1.44,0.322       C350.559,358.596,351.044,358.487,351.487,358.271z"
   id="path39" />
					<path
   fill="#FB8604"
   d="M359.571,359.781c-0.071-0.078-0.107-0.177-0.107-0.297l-0.014-10.152l-3.021,2.326       c-0.084,0.072-0.173,0.108-0.269,0.108c-0.108,0-0.211-0.06-0.308-0.18l-0.432-0.558c-0.062-0.084-0.091-0.168-0.091-0.252       c0-0.132,0.06-0.24,0.18-0.324l3.902-3.028c0.132-0.084,0.288-0.126,0.468-0.127l0.846-0.001c0.12,0,0.219,0.039,0.298,0.116       c0.077,0.078,0.116,0.178,0.116,0.298l0.016,11.771c0,0.12-0.039,0.219-0.116,0.297c-0.079,0.078-0.178,0.117-0.298,0.117       l-0.882,0.001C359.739,359.898,359.644,359.859,359.571,359.781z"
   id="path41" />
					<path
   fill="#FB8604"
   d="M369.057,358.977c-0.721-0.725-1.1-1.742-1.138-3.049l-0.02-0.72l0.018-0.721       c0.034-1.309,0.411-2.325,1.13-3.053c0.719-0.727,1.721-1.091,3.005-1.093c0.864-0.001,1.593,0.151,2.188,0.456       s1.038,0.687,1.334,1.141c0.294,0.457,0.453,0.912,0.479,1.368c0.012,0.108-0.026,0.204-0.117,0.288       c-0.09,0.084-0.188,0.126-0.297,0.126l-0.792,0.001c-0.12,0-0.21-0.025-0.27-0.08c-0.061-0.054-0.12-0.152-0.181-0.297       c-0.217-0.588-0.515-1.004-0.893-1.25c-0.378-0.245-0.854-0.368-1.431-0.367c-0.756,0.001-1.356,0.236-1.801,0.704       c-0.442,0.469-0.682,1.184-0.717,2.144l-0.017,0.63l0.019,0.63c0.037,0.96,0.278,1.674,0.723,2.141       c0.445,0.468,1.046,0.701,1.802,0.7c0.588-0.001,1.067-0.124,1.438-0.371c0.372-0.246,0.665-0.664,0.881-1.252       c0.06-0.144,0.119-0.243,0.18-0.297c0.06-0.054,0.149-0.082,0.27-0.082l0.792-0.001c0.108,0,0.207,0.042,0.297,0.126       c0.091,0.084,0.13,0.18,0.118,0.288c-0.024,0.444-0.182,0.895-0.475,1.35c-0.295,0.458-0.737,0.842-1.331,1.154       c-0.595,0.312-1.322,0.47-2.187,0.471C370.78,360.063,369.777,359.702,369.057,358.977z"
   id="path43" />
					<path
   fill="#FB8604"
   d="M378.336,359.757c-0.078-0.078-0.117-0.177-0.117-0.297l-0.012-8.532c0-0.119,0.039-0.219,0.117-0.297       c0.078-0.079,0.177-0.118,0.297-0.118l0.756-0.001c0.12,0,0.217,0.039,0.288,0.117c0.072,0.078,0.108,0.178,0.108,0.297       l0.001,0.612c0.647-0.805,1.522-1.208,2.627-1.21c1.32-0.002,2.256,0.549,2.81,1.652c0.287-0.504,0.698-0.907,1.231-1.207       c0.534-0.301,1.131-0.452,1.791-0.453c0.983-0.001,1.788,0.334,2.413,1.005c0.625,0.672,0.938,1.644,0.939,2.915l0.007,5.202       c0,0.12-0.039,0.219-0.116,0.297c-0.078,0.078-0.178,0.117-0.298,0.117l-0.773,0.001c-0.12,0.001-0.219-0.038-0.297-0.116       s-0.117-0.177-0.117-0.297l-0.007-5.04c-0.001-0.96-0.2-1.646-0.597-2.06c-0.396-0.414-0.918-0.62-1.566-0.619       c-0.576,0.001-1.071,0.214-1.485,0.641c-0.412,0.426-0.618,1.108-0.617,2.044l0.007,5.04c0,0.12-0.039,0.219-0.117,0.297       s-0.178,0.117-0.297,0.117l-0.792,0.001c-0.12,0-0.22-0.038-0.298-0.116s-0.116-0.177-0.116-0.297l-0.007-5.04       c-0.001-0.947-0.209-1.632-0.624-2.051c-0.414-0.42-0.927-0.629-1.539-0.628c-0.576,0-1.071,0.211-1.485,0.632       c-0.413,0.42-0.619,1.099-0.618,2.035l0.007,5.058c0,0.12-0.039,0.219-0.117,0.297s-0.177,0.117-0.297,0.117l-0.792,0.001       C378.513,359.873,378.414,359.834,378.336,359.757z"
   id="path45" />
				</g>
			</g>
		</g>
		<g
   id="g104">
			<g
   id="MTEXT_7_">
				<g
   id="g89">
					<g
   id="g87">
						<path
   fill="#FB8604"
   d="M221.278,663.092c-0.078-0.078-0.117-0.177-0.117-0.297v-2.628h-5.85c-0.12,0-0.219-0.039-0.297-0.117        s-0.117-0.177-0.117-0.297v-0.666c0-0.168,0.066-0.348,0.198-0.54l5.418-7.632c0.06-0.096,0.149-0.171,0.27-0.225        c0.12-0.055,0.252-0.081,0.396-0.081h1.224c0.132,0,0.234,0.035,0.307,0.107c0.071,0.072,0.107,0.174,0.107,0.307v7.632h1.639        c0.119,0,0.219,0.039,0.297,0.117c0.077,0.078,0.116,0.177,0.116,0.297v0.684c0,0.12-0.039,0.219-0.116,0.297        c-0.078,0.078-0.178,0.117-0.297,0.117h-1.639v2.628c0,0.12-0.039,0.219-0.117,0.297s-0.177,0.117-0.297,0.117h-0.828        C221.455,663.209,221.356,663.17,221.278,663.092z M216.77,658.691h4.41v-6.265L216.77,658.691z"
   id="path53" />
						<path
   fill="#FB8604"
   d="M226.463,663.092c-0.078-0.078-0.117-0.177-0.117-0.297v-0.54c0-0.275,0.149-0.54,0.45-0.792        l3.924-3.906c0.888-0.756,1.5-1.374,1.836-1.854s0.504-0.99,0.504-1.53c0-0.708-0.198-1.263-0.594-1.665        c-0.396-0.401-0.973-0.603-1.729-0.603c-0.72,0-1.29,0.21-1.71,0.63s-0.678,0.984-0.773,1.691        c-0.024,0.133-0.084,0.234-0.181,0.307c-0.096,0.072-0.191,0.107-0.288,0.107h-0.863c-0.108,0-0.198-0.035-0.271-0.107        c-0.071-0.072-0.107-0.156-0.107-0.252c0.023-0.636,0.194-1.251,0.513-1.846c0.317-0.594,0.789-1.079,1.413-1.458        c0.624-0.378,1.38-0.566,2.268-0.566c1.344,0,2.355,0.351,3.033,1.053s1.018,1.593,1.018,2.673        c0,0.756-0.184,1.438-0.55,2.043c-0.366,0.606-0.938,1.245-1.719,1.917l-3.546,3.601h5.67c0.132,0,0.234,0.036,0.306,0.107        c0.072,0.072,0.108,0.175,0.108,0.307v0.684c0,0.12-0.039,0.219-0.117,0.297s-0.177,0.117-0.297,0.117h-7.884        C226.64,663.209,226.541,663.17,226.463,663.092z"
   id="path55" />
						<path
   fill="#FB8604"
   d="M237.064,653.741c-0.054-0.072-0.069-0.162-0.045-0.271l0.396-2.52        c0.048-0.348,0.216-0.522,0.504-0.522h1.152c0.084,0,0.153,0.03,0.207,0.09c0.054,0.061,0.081,0.133,0.081,0.217        c0,0.12-0.018,0.216-0.054,0.288l-0.937,2.43c-0.06,0.132-0.126,0.231-0.198,0.297c-0.071,0.066-0.18,0.099-0.323,0.099        h-0.559C237.193,653.849,237.118,653.812,237.064,653.741z M239.891,653.741c-0.055-0.072-0.069-0.162-0.045-0.271l0.396-2.52        c0.048-0.348,0.216-0.522,0.504-0.522h1.152c0.084,0,0.153,0.03,0.207,0.09c0.054,0.061,0.081,0.133,0.081,0.217        c0,0.12-0.019,0.216-0.055,0.288l-0.936,2.43c-0.061,0.132-0.126,0.231-0.198,0.297c-0.071,0.066-0.18,0.099-0.323,0.099        h-0.559C240.02,653.849,239.944,653.812,239.891,653.741z"
   id="path57" />
						<path
   fill="#FB8604"
   d="M242.86,658.421c-0.078-0.072-0.117-0.168-0.117-0.288v-0.647c0-0.12,0.039-0.219,0.117-0.298        c0.078-0.077,0.177-0.116,0.297-0.116h5.4c0.119,0,0.219,0.039,0.297,0.116c0.077,0.079,0.117,0.178,0.117,0.298v0.647        c0,0.12-0.04,0.216-0.117,0.288c-0.078,0.072-0.178,0.108-0.297,0.108h-5.4C243.037,658.529,242.938,658.493,242.86,658.421z"
   id="path59" />
						<path
   fill="#FB8604"
   d="M252.949,662.903c-0.66-0.324-1.164-0.747-1.512-1.27c-0.349-0.521-0.534-1.083-0.558-1.683v-0.036        c0-0.096,0.035-0.174,0.107-0.234c0.072-0.06,0.156-0.09,0.252-0.09h0.882c0.252,0,0.414,0.133,0.486,0.396        c0.18,0.647,0.513,1.131,0.999,1.448c0.486,0.318,1.047,0.478,1.683,0.478c0.816,0,1.494-0.249,2.034-0.747        s0.811-1.185,0.811-2.061c0-0.805-0.271-1.443-0.811-1.918c-0.54-0.474-1.218-0.711-2.034-0.711        c-0.432,0-0.779,0.055-1.044,0.162c-0.264,0.108-0.534,0.265-0.81,0.469c-0.156,0.12-0.285,0.207-0.387,0.261        c-0.103,0.054-0.214,0.081-0.333,0.081h-0.864c-0.108,0-0.204-0.039-0.288-0.117s-0.12-0.171-0.108-0.279l0.559-5.994        c0.036-0.3,0.186-0.449,0.45-0.449h6.228c0.132,0,0.234,0.035,0.306,0.107c0.072,0.072,0.108,0.174,0.108,0.307v0.666        c0,0.119-0.039,0.216-0.117,0.287c-0.078,0.072-0.177,0.108-0.297,0.108h-5.184l-0.324,3.618        c0.576-0.408,1.35-0.612,2.322-0.612c0.804,0,1.535,0.159,2.195,0.478c0.66,0.317,1.186,0.782,1.575,1.395        s0.585,1.338,0.585,2.178c0,0.889-0.195,1.653-0.585,2.295c-0.39,0.643-0.93,1.129-1.62,1.458        c-0.689,0.33-1.479,0.495-2.367,0.495C254.39,663.389,253.609,663.227,252.949,662.903z"
   id="path61" />
						<path
   fill="#FB8604"
   d="M263.605,662.93c-0.685-0.306-1.203-0.704-1.558-1.196c-0.354-0.492-0.543-1.002-0.566-1.53        c0-0.108,0.036-0.195,0.107-0.261c0.072-0.066,0.162-0.1,0.271-0.1h0.81c0.132,0,0.24,0.027,0.324,0.081        s0.15,0.159,0.198,0.315c0.155,0.611,0.495,1.044,1.017,1.296c0.522,0.252,1.137,0.378,1.846,0.378        c0.863,0,1.551-0.207,2.061-0.621s0.765-1.005,0.765-1.773c0-1.464-0.894-2.195-2.682-2.195h-1.692        c-0.12,0-0.219-0.039-0.297-0.117s-0.117-0.177-0.117-0.297v-0.468c0-0.181,0.066-0.336,0.198-0.469l3.51-3.888h-5.327        c-0.12,0-0.22-0.036-0.298-0.108c-0.078-0.071-0.116-0.168-0.116-0.287v-0.648c0-0.132,0.038-0.237,0.116-0.315        c0.078-0.077,0.178-0.116,0.298-0.116h7.128c0.132,0,0.236,0.039,0.314,0.116c0.078,0.078,0.117,0.184,0.117,0.315v0.594        c0,0.133-0.061,0.271-0.18,0.414l-3.511,3.942h0.288c1.225,0.036,2.193,0.354,2.907,0.954c0.714,0.6,1.071,1.476,1.071,2.628        c0,0.792-0.195,1.473-0.585,2.043c-0.391,0.57-0.934,1.008-1.629,1.313c-0.696,0.307-1.482,0.459-2.358,0.459        C265.1,663.389,264.289,663.236,263.605,662.93z"
   id="path63" />
						<path
   fill="#FB8604"
   d="M272.561,653.741c-0.054-0.072-0.069-0.162-0.045-0.271l0.396-2.52        c0.048-0.348,0.216-0.522,0.504-0.522h1.152c0.084,0,0.153,0.03,0.207,0.09c0.054,0.061,0.081,0.133,0.081,0.217        c0,0.12-0.018,0.216-0.054,0.288l-0.937,2.43c-0.06,0.132-0.126,0.231-0.198,0.297c-0.071,0.066-0.18,0.099-0.323,0.099        h-0.559C272.689,653.849,272.614,653.812,272.561,653.741z M275.387,653.741c-0.055-0.072-0.069-0.162-0.045-0.271l0.396-2.52        c0.048-0.348,0.216-0.522,0.504-0.522h1.152c0.084,0,0.153,0.03,0.207,0.09c0.054,0.061,0.081,0.133,0.081,0.217        c0,0.12-0.019,0.216-0.055,0.288l-0.936,2.43c-0.061,0.132-0.126,0.231-0.198,0.297c-0.071,0.066-0.18,0.099-0.323,0.099        h-0.559C275.516,653.849,275.44,653.812,275.387,653.741z"
   id="path65" />
						<path
   fill="#FB8604"
   d="M284.269,666.836c-0.071-0.078-0.107-0.177-0.107-0.297v-19.044c0-0.12,0.036-0.219,0.107-0.297        c0.072-0.078,0.168-0.117,0.288-0.117h0.666c0.12,0,0.219,0.039,0.297,0.117s0.117,0.177,0.117,0.297v19.044        c0,0.12-0.039,0.219-0.117,0.297s-0.177,0.117-0.297,0.117h-0.666C284.437,666.953,284.341,666.914,284.269,666.836z"
   id="path67" />
						<path
   fill="#FB8604"
   d="M296.076,663.092c-0.072-0.078-0.108-0.177-0.108-0.297v-10.152l-3.023,2.322        c-0.084,0.072-0.174,0.108-0.271,0.108c-0.107,0-0.21-0.061-0.306-0.181l-0.432-0.558c-0.061-0.084-0.09-0.168-0.09-0.252        c0-0.132,0.06-0.24,0.18-0.324l3.906-3.023c0.132-0.084,0.288-0.126,0.468-0.126h0.846c0.12,0,0.219,0.039,0.297,0.116        c0.078,0.078,0.117,0.178,0.117,0.298v11.771c0,0.12-0.039,0.219-0.117,0.297s-0.177,0.117-0.297,0.117h-0.882        C296.244,663.209,296.148,663.17,296.076,663.092z"
   id="path69" />
						<path
   fill="#FB8604"
   d="M301.341,662.03c-0.714-0.906-1.095-2.091-1.143-3.556l-0.019-1.548l0.019-1.602        c0.036-1.452,0.417-2.631,1.143-3.537c0.727-0.906,1.857-1.359,3.394-1.359c1.548,0,2.685,0.453,3.411,1.359        c0.726,0.906,1.106,2.085,1.143,3.537c0.012,0.336,0.018,0.87,0.018,1.602c0,0.708-0.006,1.225-0.018,1.548        c-0.048,1.465-0.429,2.649-1.143,3.556c-0.715,0.906-1.852,1.358-3.411,1.358C303.187,663.389,302.055,662.937,301.341,662.03        z M306.822,660.977c0.468-0.611,0.714-1.476,0.738-2.592c0.012-0.348,0.018-0.846,0.018-1.494        c0-0.659-0.006-1.151-0.018-1.476c-0.024-1.104-0.273-1.965-0.747-2.583c-0.475-0.618-1.168-0.927-2.079-0.927        c-0.912,0-1.603,0.309-2.07,0.927s-0.714,1.479-0.738,2.583l-0.018,1.476l0.018,1.494c0.024,1.116,0.271,1.98,0.738,2.592        c0.468,0.612,1.158,0.918,2.07,0.918C305.658,661.895,306.354,661.589,306.822,660.977z"
   id="path71" />
						<path
   fill="#FB8604"
   d="M312.879,663.092c-0.065-0.078-0.099-0.171-0.099-0.279l0.036-0.161l4.5-10.53h-5.94        c-0.12,0-0.219-0.039-0.297-0.117s-0.117-0.177-0.117-0.297v-0.666c0-0.132,0.036-0.237,0.108-0.315        c0.072-0.077,0.174-0.116,0.306-0.116h7.344c0.133,0,0.234,0.039,0.307,0.116c0.072,0.078,0.107,0.184,0.107,0.315v0.612        c0,0.216-0.048,0.449-0.144,0.702l-4.446,10.403c-0.06,0.133-0.126,0.24-0.198,0.324c-0.071,0.084-0.174,0.126-0.306,0.126        h-0.899C313.032,663.209,312.945,663.17,312.879,663.092z"
   id="path73" />
						<path
   fill="#FB8604"
   d="M320.349,658.421c-0.078-0.072-0.116-0.168-0.116-0.288v-0.647c0-0.12,0.038-0.219,0.116-0.298        c0.078-0.077,0.178-0.116,0.297-0.116h5.4c0.12,0,0.219,0.039,0.297,0.116c0.078,0.079,0.117,0.178,0.117,0.298v0.647        c0,0.12-0.039,0.216-0.117,0.288s-0.177,0.108-0.297,0.108h-5.4C320.526,658.529,320.427,658.493,320.349,658.421z"
   id="path75" />
						<path
   fill="#FB8604"
   d="M331.717,663.092c-0.072-0.078-0.108-0.177-0.108-0.297v-10.152l-3.024,2.322        c-0.084,0.072-0.174,0.108-0.27,0.108c-0.108,0-0.21-0.061-0.306-0.181l-0.433-0.558c-0.06-0.084-0.09-0.168-0.09-0.252        c0-0.132,0.06-0.24,0.18-0.324l3.906-3.023c0.132-0.084,0.288-0.126,0.468-0.126h0.847c0.119,0,0.219,0.039,0.297,0.116        c0.078,0.078,0.117,0.178,0.117,0.298v11.771c0,0.12-0.039,0.219-0.117,0.297s-0.178,0.117-0.297,0.117h-0.883        C331.885,663.209,331.788,663.17,331.717,663.092z"
   id="path77" />
						<path
   fill="#FB8604"
   d="M337.584,662.93c-0.685-0.306-1.203-0.704-1.558-1.196c-0.354-0.492-0.543-1.002-0.566-1.53        c0-0.108,0.036-0.195,0.107-0.261c0.072-0.066,0.162-0.1,0.271-0.1h0.81c0.132,0,0.24,0.027,0.324,0.081        s0.15,0.159,0.198,0.315c0.155,0.611,0.495,1.044,1.017,1.296c0.522,0.252,1.137,0.378,1.846,0.378        c0.863,0,1.551-0.207,2.061-0.621s0.765-1.005,0.765-1.773c0-1.464-0.894-2.195-2.682-2.195h-1.692        c-0.12,0-0.219-0.039-0.297-0.117s-0.117-0.177-0.117-0.297v-0.468c0-0.181,0.066-0.336,0.198-0.469l3.51-3.888h-5.327        c-0.12,0-0.22-0.036-0.298-0.108c-0.078-0.071-0.116-0.168-0.116-0.287v-0.648c0-0.132,0.038-0.237,0.116-0.315        c0.078-0.077,0.178-0.116,0.298-0.116h7.128c0.132,0,0.236,0.039,0.314,0.116c0.078,0.078,0.117,0.184,0.117,0.315v0.594        c0,0.133-0.061,0.271-0.18,0.414l-3.511,3.942h0.288c1.225,0.036,2.193,0.354,2.907,0.954c0.714,0.6,1.071,1.476,1.071,2.628        c0,0.792-0.195,1.473-0.585,2.043c-0.391,0.57-0.934,1.008-1.629,1.313c-0.696,0.307-1.482,0.459-2.358,0.459        C339.078,663.389,338.268,663.236,337.584,662.93z"
   id="path79" />
						<path
   fill="#FB8604"
   d="M348.348,662.903c-0.66-0.324-1.164-0.747-1.512-1.27c-0.349-0.521-0.534-1.083-0.558-1.683v-0.036        c0-0.096,0.035-0.174,0.107-0.234c0.072-0.06,0.156-0.09,0.252-0.09h0.882c0.252,0,0.414,0.133,0.486,0.396        c0.18,0.647,0.513,1.131,0.999,1.448c0.486,0.318,1.047,0.478,1.683,0.478c0.816,0,1.494-0.249,2.034-0.747        s0.811-1.185,0.811-2.061c0-0.805-0.271-1.443-0.811-1.918c-0.54-0.474-1.218-0.711-2.034-0.711        c-0.432,0-0.779,0.055-1.044,0.162c-0.264,0.108-0.534,0.265-0.81,0.469c-0.156,0.12-0.285,0.207-0.387,0.261        c-0.103,0.054-0.214,0.081-0.333,0.081h-0.864c-0.108,0-0.204-0.039-0.288-0.117s-0.12-0.171-0.108-0.279l0.559-5.994        c0.036-0.3,0.186-0.449,0.45-0.449h6.228c0.132,0,0.234,0.035,0.306,0.107c0.072,0.072,0.108,0.174,0.108,0.307v0.666        c0,0.119-0.039,0.216-0.117,0.287c-0.078,0.072-0.177,0.108-0.297,0.108h-5.184l-0.324,3.618        c0.576-0.408,1.35-0.612,2.322-0.612c0.804,0,1.535,0.159,2.195,0.478c0.66,0.317,1.186,0.782,1.575,1.395        s0.585,1.338,0.585,2.178c0,0.889-0.195,1.653-0.585,2.295c-0.39,0.643-0.93,1.129-1.62,1.458        c-0.689,0.33-1.479,0.495-2.367,0.495C349.788,663.389,349.008,663.227,348.348,662.903z"
   id="path81" />
						<path
   fill="#FB8604"
   d="M362.621,662.3c-0.72-0.726-1.098-1.743-1.134-3.051l-0.018-0.72l0.018-0.721        c0.036-1.308,0.414-2.324,1.134-3.051c0.721-0.726,1.722-1.089,3.007-1.089c0.863,0,1.593,0.153,2.187,0.459        s1.038,0.688,1.332,1.143c0.294,0.457,0.453,0.912,0.477,1.368c0.013,0.108-0.026,0.204-0.116,0.288        c-0.091,0.084-0.189,0.126-0.298,0.126h-0.792c-0.12,0-0.21-0.026-0.27-0.081c-0.061-0.054-0.12-0.152-0.18-0.297        c-0.217-0.588-0.514-1.005-0.892-1.251s-0.854-0.369-1.431-0.369c-0.756,0-1.356,0.234-1.8,0.702        c-0.444,0.468-0.685,1.183-0.721,2.143l-0.018,0.63l0.018,0.63c0.036,0.96,0.276,1.674,0.721,2.142        c0.443,0.468,1.044,0.702,1.8,0.702c0.588,0,1.067-0.123,1.439-0.369s0.666-0.663,0.883-1.251        c0.06-0.144,0.119-0.243,0.18-0.297c0.06-0.054,0.149-0.081,0.27-0.081h0.792c0.108,0,0.207,0.042,0.298,0.126        c0.09,0.084,0.129,0.18,0.116,0.288c-0.023,0.444-0.183,0.895-0.477,1.35c-0.294,0.457-0.738,0.841-1.332,1.152        s-1.323,0.468-2.187,0.468C364.343,663.389,363.342,663.026,362.621,662.3z"
   id="path83" />
						<path
   fill="#FB8604"
   d="M371.9,663.092c-0.078-0.078-0.117-0.177-0.117-0.297v-8.532c0-0.119,0.039-0.219,0.117-0.297        s0.177-0.117,0.297-0.117h0.756c0.12,0,0.216,0.039,0.288,0.117s0.108,0.178,0.108,0.297v0.612        c0.647-0.804,1.523-1.206,2.628-1.206c1.319,0,2.256,0.552,2.808,1.656c0.288-0.504,0.699-0.906,1.233-1.206        c0.533-0.3,1.131-0.45,1.791-0.45c0.983,0,1.788,0.336,2.412,1.008c0.623,0.673,0.936,1.645,0.936,2.916v5.202        c0,0.12-0.039,0.219-0.117,0.297s-0.177,0.117-0.297,0.117h-0.773c-0.12,0-0.22-0.039-0.298-0.117s-0.116-0.177-0.116-0.297        v-5.04c0-0.96-0.198-1.646-0.595-2.061c-0.396-0.414-0.918-0.621-1.565-0.621c-0.576,0-1.071,0.213-1.485,0.639        s-0.621,1.107-0.621,2.043v5.04c0,0.12-0.039,0.219-0.117,0.297s-0.177,0.117-0.297,0.117h-0.792        c-0.12,0-0.219-0.039-0.297-0.117s-0.117-0.177-0.117-0.297v-5.04c0-0.947-0.207-1.632-0.62-2.052        c-0.414-0.42-0.928-0.63-1.539-0.63c-0.576,0-1.071,0.21-1.485,0.63s-0.621,1.098-0.621,2.034v5.058        c0,0.12-0.039,0.219-0.117,0.297s-0.177,0.117-0.297,0.117h-0.792C372.077,663.209,371.979,663.17,371.9,663.092z"
   id="path85" />
					</g>
				</g>
			</g>
			<g
   id="POLYLINE_636_">
				
					<line
   fill="none"
   stroke="#FB8604"
   stroke-width="2"
   stroke-linecap="round"
   stroke-linejoin="round"
   stroke-miterlimit="10"
   x1="395"
   y1="656.633"
   x2="529.22"
   y2="656.633"
   id="line92" />
			</g>
			<g
   id="POLYLINE_635_">
				
					<polyline
   fill="none"
   stroke="#FB8604"
   stroke-width="2"
   stroke-linecap="round"
   stroke-linejoin="round"
   stroke-miterlimit="10"
   points="      176.578,648.506 168.454,656.633 176.578,664.758     "
   id="polyline95" />
			</g>
			<g
   id="POLYLINE_634_">
				
					<line
   fill="none"
   stroke="#FB8604"
   stroke-width="2"
   stroke-linecap="round"
   stroke-linejoin="round"
   stroke-miterlimit="10"
   x1="168.454"
   y1="656.633"
   x2="204.215"
   y2="656.633"
   id="line98" />
			</g>
			<g
   id="POLYLINE_633_">
				
					<polyline
   fill="none"
   stroke="#FB8604"
   stroke-width="2"
   stroke-linecap="round"
   stroke-linejoin="round"
   stroke-miterlimit="10"
   points="      521.095,648.506 529.22,656.633 521.095,664.758     "
   id="polyline101" />
			</g>
		</g>
	</g>
</g>
<g
   id="AG-DETAIL-DIAGRAM"
   style="filter:url(#filter1924)">
	<g
   id="POLYLINE_10_">
		<g
   id="g159">
			<g
   id="g157">
				<path
   fill="none"
   stroke="#FB8604"
   stroke-width="3.25"
   stroke-linecap="round"
   stroke-linejoin="round"
   d="M750.576,119.477      c-0.145-0.652-0.276-1.305-0.4-1.955c-0.648-0.008-1.331-0.126-1.96-0.358"
   id="path109" />
				
					<path
   fill="none"
   stroke="#FB8604"
   stroke-width="3.25"
   stroke-linecap="round"
   stroke-linejoin="round"
   stroke-dasharray="2.3719,4.1508"
   d="      M745.602,114.173c-0.025-0.102-0.047-0.204-0.066-0.307c-0.208-1.111-0.174-2.263-0.089-3.386      c0.021-0.244,0.044-0.489,0.07-0.734"
   id="path111" />
				<path
   fill="none"
   stroke="#FB8604"
   stroke-width="3.25"
   stroke-linecap="round"
   stroke-linejoin="round"
   d="M745.795,107.689      c0.111-0.66,0.245-1.314,0.407-1.957c-0.048-0.036-0.06-0.046-0.06-0.046c-0.048-0.041-0.059-0.052-0.059-0.052      c-0.046-0.045-0.057-0.056-0.057-0.056c-0.044-0.048-0.055-0.06-0.055-0.06c-0.36-0.438-0.541-0.991-0.758-1.499"
   id="path113" />
				
					<path
   fill="none"
   stroke="#FB8604"
   stroke-width="3.25"
   stroke-linecap="round"
   stroke-linejoin="round"
   stroke-dasharray="4.1369,7.2396"
   d="      M742.23,97.46c-0.085-0.391-0.148-0.785-0.18-1.182c-0.069-0.735,0.046-1.447,0.28-2.139c0.186-0.57,0.437-1.238,0.445-1.832      c0.013-0.939-0.427-1.897-0.704-2.778c-0.169-0.524-0.336-1.111-0.323-1.659c0.013-0.544,0.222-1.029,0.452-1.48      c0.265-0.511,0.621-1.12,0.772-1.673c0.143-0.504,0.157-1.009,0.156-1.525c-0.001-0.962-0.132-2.082,0.277-2.974      c0.287-0.598,0.764-1.011,1.237-1.405c0.537-0.438,1.193-0.914,1.653-1.426c0.286-0.313,0.501-0.647,0.675-1.013      c0.643-1.321,0.666-2.932,1.165-4.297c0.304-0.835,0.929-1.423,1.692-1.757c1.427-0.634,3.189-0.872,4.639-1.445      c0.333-0.132,0.713-0.32,0.97-0.535c0.383-0.308,0.614-0.705,0.879-1.091c0.321-0.501,0.791-0.848,1.279-1.101      c0.55-0.3,1.386-0.626,1.939-0.923c0.65-0.33,1.187-0.956,1.682-1.454c0.388-0.386,0.82-0.786,1.24-1.136      c0.538-0.446,1.11-0.871,1.727-1.202c0.537-0.295,1.204-0.524,1.796-0.465c0.772,0.051,1.493,0.429,2.243,0.468      c0.927,0.03,1.764-0.337,2.652-0.496c1.524-0.328,3.145,0.263,4.615,0.625c1.562,0.386,3.253,0.624,4.81,0.096      c0.875-0.279,1.757-0.899,2.654-1.066c0.044-0.006,0.066-0.009,0.066-0.009c0.043-0.004,0.065-0.006,0.065-0.006      c0.043-0.002,0.064-0.003,0.064-0.003c0.042,0,0.063,0,0.063,0c0.041,0.002,0.052,0.002,0.052,0.002      c0.041,0.003,0.051,0.005,0.051,0.005c0.051,0.007,0.061,0.009,0.061,0.009c0.049,0.01,0.059,0.012,0.059,0.012      c0.048,0.012,0.057,0.015,0.057,0.015c0.047,0.015,0.056,0.019,0.056,0.019c0.046,0.018,0.055,0.022,0.055,0.022      c0.036,0.016,0.055,0.025,0.055,0.025c0.036,0.018,0.054,0.028,0.054,0.028c0.036,0.02,0.053,0.031,0.053,0.031      c0.035,0.022,0.053,0.033,0.053,0.033c0.367,0.25,0.679,0.644,0.978,0.952c0.385,0.41,0.839,0.788,1.328,0.986      c0.974,0.394,2.109,0.413,3.142,0.524c0.414,0.047,0.886,0.101,1.264,0.262c0.049,0.022,0.061,0.028,0.061,0.028      c0.046,0.024,0.057,0.03,0.057,0.03c0.044,0.025,0.054,0.032,0.054,0.032c0.05,0.034,0.062,0.043,0.062,0.043      c0.047,0.038,0.058,0.047,0.058,0.047c0.042,0.04,0.052,0.05,0.052,0.05c0.038,0.043,0.047,0.053,0.047,0.053      c0.034,0.045,0.042,0.056,0.042,0.056c0.031,0.047,0.038,0.059,0.038,0.059c0.028,0.049,0.034,0.062,0.034,0.062      c0.019,0.038,0.025,0.051,0.025,0.051c0.017,0.039,0.023,0.052,0.023,0.052c0.083,0.2,0.14,0.463,0.196,0.664      c0.04,0.146,0.104,0.331,0.159,0.445c0.023,0.048,0.031,0.063,0.031,0.063c0.025,0.047,0.034,0.063,0.034,0.063      c0.027,0.047,0.037,0.063,0.037,0.063c0.03,0.047,0.04,0.062,0.04,0.062c0.03,0.043,0.046,0.065,0.046,0.065      c0.033,0.043,0.05,0.065,0.05,0.065c0.24,0.294,0.5,0.5,0.756,0.705c0.54,0.419,1.288,0.921,1.691,1.447      c0.036,0.047,0.053,0.071,0.053,0.071c0.033,0.048,0.049,0.072,0.049,0.072c0.031,0.048,0.045,0.073,0.045,0.073      c0.028,0.049,0.042,0.074,0.042,0.074c0.025,0.05,0.037,0.075,0.037,0.075c0.023,0.051,0.028,0.063,0.028,0.063      c0.015,0.038,0.02,0.051,0.02,0.051c0.013,0.036,0.021,0.06,0.021,0.06c0.014,0.047,0.021,0.071,0.021,0.071      c0.012,0.048,0.017,0.072,0.017,0.072c0.01,0.049,0.014,0.073,0.014,0.073c0.008,0.049,0.011,0.074,0.011,0.074      c0.005,0.05,0.008,0.075,0.008,0.075c0.004,0.05,0.005,0.075,0.005,0.075c0.021,0.646-0.213,1.264-0.379,1.875      c-0.07,0.252-0.139,0.558-0.148,0.784c-0.002,0.043-0.002,0.065-0.002,0.065c-0.001,0.088,0.005,0.157,0.011,0.209      c0.007,0.05,0.01,0.067,0.01,0.067c0.009,0.05,0.012,0.066,0.012,0.066c0.011,0.049,0.015,0.065,0.015,0.065      c0.013,0.048,0.018,0.064,0.018,0.064c0.015,0.047,0.02,0.063,0.02,0.063c0.017,0.047,0.022,0.062,0.022,0.062      c0.182,0.464,0.563,0.879,0.859,1.266c0.191,0.246,0.38,0.511,0.549,0.772c0.49,0.765,0.959,1.642,1.159,2.524      c0.135,0.594,0.075,1.211,0.17,1.805c0.088,0.534,0.3,0.957,0.529,1.419c0.3,0.591,0.693,1.301,0.892,1.931      c0.31,0.957,0.271,2.058,0.403,3.046c0.155,1.34,0.821,2.902,1.266,4.175c0.278,0.787,0.512,1.605,0.554,2.443      c0.063,1.227-0.212,2.863-0.417,4.242"
   id="path115" />
				<path
   fill="none"
   stroke="#FB8604"
   stroke-width="3.25"
   stroke-linecap="round"
   stroke-linejoin="round"
   d="M799.554,99.214      c-0.14,0.658-0.359,1.288-0.75,1.843c0.229,0.616,0.458,1.26,0.613,1.908"
   id="path117" />
				
					<path
   fill="none"
   stroke="#FB8604"
   stroke-width="3.25"
   stroke-linecap="round"
   stroke-linejoin="round"
   stroke-dasharray="3.062,5.3586"
   d="      M799.881,108.297c0.001,0.152,0.001,0.303,0.001,0.454c-0.037,1.364-0.004,2.886-0.71,4.096      c-0.192,0.321-0.416,0.603-0.664,0.857"
   id="path119" />
				<path
   fill="none"
   stroke="#FB8604"
   stroke-width="3.25"
   stroke-linecap="round"
   stroke-linejoin="round"
   d="M796.313,115.213      c-0.604,0.285-1.241,0.5-1.897,0.62c-0.073,0.66-0.155,1.322-0.256,1.982"
   id="path121" />
				
					<path
   fill="none"
   stroke="#FB8604"
   stroke-width="3.25"
   stroke-linecap="round"
   stroke-linejoin="round"
   stroke-dasharray="3.5078,6.1386"
   d="      M792.815,123.769c0.008,4.476-0.046,9.521,0.404,13.886c0.187,1.686,0.483,3.388,1.012,5.002c0.45,1.383,1.08,2.716,1.871,3.937      c0.453,0.693,0.956,1.365,1.525,1.973"
   id="path123" />
				<path
   fill="none"
   stroke="#FB8604"
   stroke-width="3.25"
   stroke-linecap="round"
   stroke-linejoin="round"
   d="M800.059,150.419      c0.596,0.299,1.227,0.533,1.863,0.727c0.066-0.036,0.092-0.048,0.115-0.06c0.037-0.017,0.056-0.025,0.056-0.025      c0.596-0.246,1.201-0.154,1.782,0.002"
   id="path125" />
				
					<path
   fill="none"
   stroke="#FB8604"
   stroke-width="3.25"
   stroke-linecap="round"
   stroke-linejoin="round"
   stroke-dasharray="3.8276,6.6983"
   d="      M810.176,153.334c5.062,1.882,10.375,3.844,15.279,4.957l6.215,1.302c2.954,0.648,5.884,1.611,8.463,3.219      c1.36,0.849,2.68,1.852,3.584,3.196c0.676,1.001,1.13,2.143,1.531,3.276c1.043,3.035,1.762,6.31,2.418,9.451      c0.653,3.16,1.571,8.604,2.271,11.758c0.07,0.349,0.133,0.724,0.168,1.079c0.073,0.696,0.06,1.423,0.043,2.122      c-0.088,2.396-0.281,5.307-0.152,7.697c0.162,3.393,0.812,8.616,1.211,12.003c0.198,1.479,0.667,4.372,0.952,6.625"
   id="path127" />
				<path
   fill="none"
   stroke="#FB8604"
   stroke-width="3.25"
   stroke-linecap="round"
   stroke-linejoin="round"
   d="M852.363,223.352      c-0.004,0.03-0.009,0.06-0.014,0.09c-0.01,0.048-0.013,0.064-0.013,0.064c-0.011,0.044-0.015,0.059-0.015,0.059      c-0.012,0.041-0.016,0.053-0.016,0.053c-0.018,0.048-0.023,0.059-0.023,0.059c-0.021,0.041-0.026,0.051-0.026,0.051      c-0.035,0.05-0.041,0.056-0.041,0.056c-0.051,0.041-0.053,0.042-0.053,0.042c-0.048,0.019-0.051,0.019-0.051,0.019      c-0.05,0.005-0.053,0.005-0.053,0.005c-0.05-0.006-0.054-0.007-0.054-0.007c-0.046-0.013-0.054-0.015-0.054-0.015      c-0.049-0.02-0.058-0.024-0.058-0.024c-0.043-0.022-0.052-0.027-0.052-0.027c-0.036-0.021-0.055-0.033-0.055-0.033      c-0.038-0.025-0.058-0.039-0.058-0.039c-0.295-0.215-0.495-0.423-0.746-0.658c-0.045,0.662-0.11,1.326-0.191,1.991"
   id="path129" />
				
					<path
   fill="none"
   stroke="#FB8604"
   stroke-width="3.25"
   stroke-linecap="round"
   stroke-linejoin="round"
   stroke-dasharray="3.9957,6.9924"
   d="      M849.504,231.909c-0.162,0.688-0.329,1.371-0.498,2.049c-0.998,4.039-2.158,8.35-3.484,12.286      c-1.16,3.472-2.695,7.242-4.13,10.622c-0.484,1.073-1.608,3.83-2.153,4.831c-0.344,0.654-0.822,1.377-1.417,1.788      c-0.434,0.301-0.843,0.436-1.337,0.548c-0.344,0.075-0.707,0.12-1.058,0.153c-0.839,0.062-2.402,0.167-4.054,0.274"
   id="path131" />
				<path
   fill="none"
   stroke="#FB8604"
   stroke-width="3.25"
   stroke-linecap="round"
   stroke-linejoin="round"
   d="M827.883,264.681      c-0.827,0.05-1.532,0.09-1.997,0.114c0.228,0.625,0.451,1.252,0.669,1.881"
   id="path133" />
				
					<path
   fill="none"
   stroke="#FB8604"
   stroke-width="3.25"
   stroke-linecap="round"
   stroke-linejoin="round"
   stroke-dasharray="4.1636,7.2862"
   d="      M828.734,273.625c1.908,6.781,3.245,13.737,4.003,20.721c0.488,4.528,0.773,9.215,0.668,13.771      c-0.028,2.358-0.391,5.752-0.615,8.121c-0.11,1.394-0.202,2.826,0.022,4.212c0.146,0.905,0.478,1.777,0.855,2.609      c0.557,1.198,1.214,2.533,1.548,3.808c0.714,2.55,1.086,6.74,1.462,9.394c0.549,4.055,1.681,8.555,2.638,12.549      c0.001,0.004,0.002,0.009,0.003,0.013"
   id="path135" />
				<path
   fill="none"
   stroke="#FB8604"
   stroke-width="3.25"
   stroke-linecap="round"
   stroke-linejoin="round"
   d="M837.918,351.644      c-0.108,0.026-0.217,0.05-0.327,0.072c-0.54,0.101-1.104,0.14-1.653,0.156c0.033,0.653,0.067,1.325,0.093,1.998"
   id="path137" />
				
					<path
   fill="none"
   stroke="#FB8604"
   stroke-width="3.25"
   stroke-linecap="round"
   stroke-linejoin="round"
   stroke-dasharray="3.9759,6.9579"
   d="      M835.962,360.826c0.01,0.241,0.025,0.479,0.046,0.715c0.178,2.136,0.595,4.282,1.143,6.353c0.768,2.853,1.988,5.715,2.145,8.694      c0.172,2.386-0.166,5.338,0.003,7.726c0.111,1.579,0.577,3.243,0.513,4.831c-0.043,1.35-0.399,3.613-0.498,4.969      c-0.156,1.838-0.169,3.97-0.166,5.825c0.02,4.055,0.333,10.563,0.423,14.656c0.012,1.16,0.003,2.452-0.067,3.606      c-0.115,2.089-0.553,4.452-0.464,6.546c0.052,1.472,0.444,3.346,0.695,4.806c0.36,1.858,1.299,10.819,1.553,12.843      c0.092,0.832,0.196,1.868,0.221,2.706c0.026,0.775,0.001,1.568-0.147,2.331c-0.103,0.54-0.271,1.072-0.489,1.576      c-0.333,0.752-0.8,1.572-1.067,2.353c-0.518,1.462-0.454,3.054-0.308,4.576c0.127,1.17,0.33,2.365,0.653,3.498      c0.243,0.871,0.627,1.692,0.967,2.51c0.307,0.745,0.562,1.527,0.651,2.331c0.09,0.752,0.016,1.524-0.083,2.273      c-0.147,1.141-0.446,2.498-0.326,3.642c0.061,0.565,0.281,1.123,0.533,1.61l0.558,1.054c0.383,0.738,0.607,1.553,0.735,2.372      c0.174,1.102,0.204,2.242,0.178,3.357l-0.072,1.936c-0.019,0.862-0.016,1.75,0.231,2.583c0.2,0.702,0.693,1.382,1.073,1.99      c0.27,0.436,0.501,0.887,0.605,1.366c0.122,0.575,0.088,1.104,0.024,1.67c-0.179,1.422-0.603,2.906-0.65,4.343      c-0.045,1.236,0.165,2.479,0.413,3.686c0.233,1.102,0.703,3.182,0.857,4.274c0.219,1.447,0.336,2.96,0.397,4.423      c0.276,8.14-0.859,24.587-0.998,32.823c-0.111,4.047-0.135,8.527,0.212,12.565c0.099,1.503-0.052,3.024-0.31,4.505l-1.112,5.979      c-0.378,2.277-0.652,4.615-0.577,6.926c0.035,1.223,0.204,2.466,0.439,3.667c0.371,1.909,0.984,4.252,0.98,6.19      c0.002,2.135-0.638,4.219-1.462,6.17c-0.465,1.102-1.139,2.393-1.291,3.583c-0.117,0.787-0.041,1.591,0.118,2.366      c0.282,1.413,0.896,3.209,1.193,4.62c0.172,0.836,0.308,1.743,0.072,2.57c-0.172,0.673-0.601,1.308-0.791,1.957      c-0.035,0.127-0.055,0.237-0.065,0.325c-0.005,0.044-0.007,0.066-0.007,0.066c-0.003,0.044-0.004,0.067-0.004,0.067      c-0.011,0.349,0.054,0.628,0.126,0.931l0.216,0.811c0.118,0.459,0.204,0.987,0.102,1.447c-0.097,0.447-0.331,0.834-0.608,1.135      c-0.047,0.049-0.063,0.065-0.063,0.065c-0.077,0.076,0.005,0.132,0.01,0.169c0.039,0.085,0.082,0.191,0.099,0.233      c0.085,0.211,0.175,0.468,0.248,0.685c0.613,1.825,1.102,3.971,2.471,5.394c0.788,0.829,1.764,1.447,2.603,2.21      c0.826,0.724,1.636,1.508,2.348,2.344c0.459,0.542,0.888,1.124,1.211,1.758c0.5,0.969,0.737,2.053,0.888,3.127      c0.179,1.317,0.259,2.662,0.157,3.989c-0.078,0.856-0.219,1.811-0.719,2.517c-0.037,0.05-0.056,0.075-0.056,0.075      c-0.039,0.048-0.058,0.072-0.058,0.072c-0.04,0.046-0.061,0.069-0.061,0.069c-0.042,0.044-0.063,0.066-0.063,0.066      c-0.043,0.043-0.066,0.063-0.066,0.063c-0.045,0.041-0.068,0.061-0.068,0.061c-0.047,0.039-0.071,0.059-0.071,0.059      c-0.049,0.038-0.073,0.056-0.073,0.056c-0.652,0.467-1.409,0.606-2.174,0.733c-1.223,0.181-2.625,0.257-3.865,0.326      c-5.387,0.252-12.2,0.173-17.625,0.13c-1.604-0.036-3.343-0.058-4.923-0.333c-1.263-0.212-2.609-0.678-3.436-1.669      c-1.021-1.194-1.347-2.759-1.549-4.271c-0.33-2.7-0.203-5.589-0.105-8.307c-0.313-1.182-0.329-2.507-0.521-3.712      c-0.472-2.583-0.749-5.833-1.196-8.418c-0.156-0.854-0.342-1.727-0.622-2.549c-0.208-0.638-0.554-1.309-0.968-1.805      c-0.368-0.463-0.886-0.922-1.227-1.399c-0.52-0.744-0.72-1.555-0.843-2.416c-0.159-1.199-0.098-2.448-0.018-3.652l0.27-3.329      c0.084-1.222,0.086-2.475-0.023-3.696c-0.17-2.134-1.094-6.966-1.441-9.137c-0.786-4.777-1.12-9.692-1.141-14.531      c-0.055-3.944,0.341-9.912,0.559-13.9c0.644-13.021-1.958-27.465-0.946-40.475c0.088-1.521,0.346-3.516,0.349-5.035      c-0.002-0.695-0.083-1.398-0.207-2.082c-0.185-1.013-0.512-2.495-0.578-3.509c-0.072-0.793,0.045-1.823,0.108-2.621      c0.039-0.547,0.036-1.18-0.143-1.692c-0.237-0.704-0.707-1.318-1.038-1.968c-0.199-0.386-0.31-0.742-0.396-1.141      c-0.15-0.702-0.242-1.566-0.615-2.178c-0.497-0.839-1.251-1.583-1.641-2.476c-0.277-0.603-0.454-1.254-0.589-1.902      c-0.325-1.518-0.481-4.001-0.645-5.563c-0.128-1.159-0.291-2.344-0.646-3.458c-0.316-1.022-0.99-2.216-1.48-3.173      c-0.597-1.16-1-2.426-1.145-3.724c-0.185-1.4,0.043-3.286,0.135-4.7c0.065-1.021,0.074-2.064-0.064-3.079      c-0.208-1.596-0.693-3.175-1.218-4.693c-0.555-1.624-1.428-3.727-1.708-5.406c-0.138-0.822-0.188-1.878-0.292-2.706      c-0.1-0.84-0.286-1.708-0.484-2.531c-0.476-1.948-1.255-4.623-1.658-6.578c-0.298-1.405-0.699-3.925-1.093-5.293      c-0.48-1.895-1.821-3.997-2.745-5.709c-1.3-2.441-2.37-5.088-3.314-7.686c-1.114-3.115-2.088-6.379-2.743-9.622      c-0.44-2.11-1.064-6.301-1.716-8.302c-0.255-0.812-0.583-1.613-1.042-2.332c-0.487-0.77-1.169-1.479-1.973-1.851      c-1.224-0.575-2.943-0.486-3.692,0.724c-0.352,0.546-0.529,1.095-0.714,1.697c-0.278,0.942-0.489,1.977-0.673,2.942      c-0.468,2.45-0.937,6.24-1.285,8.742c-0.105,0.711-0.235,1.483-0.399,2.182c-0.255,1.126-0.675,2.222-1.235,3.233      c-0.627,1.153-1.483,2.506-1.861,3.754c-0.187,0.601-0.262,1.235-0.279,1.862c-0.036,1.282,0.141,2.721-0.081,3.99      c-0.256,1.521-0.987,3.078-1.354,4.572c-0.416,1.515-0.215,3.218-0.167,4.769c0.017,0.703-0.007,1.418-0.141,2.11      c-0.221,1.184-0.768,2.509-1.125,3.658c-0.172,0.555-0.323,1.132-0.395,1.709c-0.086,0.673-0.076,1.367-0.043,2.044      c0.042,0.823,0.139,1.942,0.059,2.762c-0.055,0.618-0.2,1.234-0.368,1.831c-0.29,0.995-0.724,2.372-0.897,3.377      c-0.341,1.709-0.803,6.363-1.028,8.157c-0.756,6.034-2.705,14.367-3.895,20.367c-0.195,0.98-0.554,2.051-0.907,2.99      c-0.265,0.75-0.503,1.575-0.461,2.373c0.029,0.826,0.296,1.725,0.196,2.541c-0.052,0.43-0.228,0.788-0.413,1.128      c-0.244,0.438-0.592,0.991-0.727,1.456c-0.108,0.348-0.122,0.667-0.086,0.989c0.138,1.26,0.939,2.505,0.956,3.767      c-0.007,0.49-0.152,0.91-0.328,1.351c-0.292,0.686-0.603,1.418-0.782,2.136c-0.188,0.736-0.274,1.514-0.327,2.271      c-0.094,1.43-0.064,2.947-0.007,4.38c0.177,4.273,1.002,12.107,1.217,16.39c0.24,4.515,0.155,9.135-0.262,13.635      c-0.39,4.479-1.409,10.66-1.74,15.14c-0.229,3.061-0.262,6.321-0.222,9.392c0.058,3.539,0.406,10.405,0.102,13.891      c-0.085,1.089-0.23,2.212-0.462,3.28c-0.304,1.452-0.894,3.346-1.286,4.758c-1.728,5.983-0.937,12.635-2.469,18.654      c-0.404,1.632-1.034,3.782-1.221,5.431c-0.166,1.316-0.135,2.68-0.068,4.003c0.127,2.538,0.47,5.639,0.024,8.14      c-0.174,0.989-0.459,2.038-0.977,2.896c0.116,1.389,0.227,2.824,0.13,4.216c-0.076,0.97-0.287,2.054-0.935,2.8      c-0.044,0.05-0.067,0.074-0.067,0.074c-0.046,0.048-0.07,0.072-0.07,0.072c-0.048,0.047-0.073,0.07-0.073,0.07      c-0.675,0.618-1.526,0.861-2.385,1.064c-1.973,0.419-4.058,0.54-6.07,0.657c-5.735,0.298-30.95,0.259-37.089,0.26      c-0.918-0.034-1.858-0.1-2.76-0.282c-1.18-0.23-2.496-0.754-3.063-1.859c-0.306-0.568-0.435-1.165-0.514-1.794      c-0.116-1.012-0.066-2.057,0.005-3.071c0.137-1.845,0.57-3.817,1.851-5.216c0.779-0.862,1.73-1.488,2.741-2.035      c2.754-1.477,7.657-2.911,10.633-3.983c2.387-0.886,4.915-1.76,6.864-3.451"
   id="path139" />
				<path
   fill="none"
   stroke="#FB8604"
   stroke-width="3.25"
   stroke-linecap="round"
   stroke-linejoin="round"
   d="M722.411,603.461      c0.344-0.573,0.649-1.17,0.92-1.776c-0.288-0.629-0.299-1.3-0.23-1.964"
   id="path141" />
				
					<path
   fill="none"
   stroke="#FB8604"
   stroke-width="3.25"
   stroke-linecap="round"
   stroke-linejoin="round"
   stroke-dasharray="3.9235,6.8662"
   d="      M724.196,592.992c-0.203-0.881-0.734-1.698-1.14-2.477c-0.637-1.23-1.215-2.581-1.137-3.994c0.088-1.387,0.839-2.669,1.012-4.04      c0.084-0.658-0.028-1.307-0.187-1.942c-0.226-0.89-0.556-1.848-0.602-2.77c-0.086-1.518,0.571-3.389,0.921-4.855      c1.244-4.698,0.568-10.305,0.736-15.122c0.121-2.841,0.451-6.643,0.438-9.464c0.087-2.819-0.545-23.193-0.612-26.479      c-0.136-7.816,0.085-16.806,0.521-24.615c0.123-1.787,0.263-3.739,0.569-5.503c0.147-0.856,0.482-2.247,0.531-3.124      c0.03-0.437,0.005-0.881-0.045-1.315l-0.167-1.302c-0.089-0.748-0.126-1.515,0.001-2.26c0.173-1.019,0.645-2.103,1.018-3.068      c0.379-0.99,0.794-2.077,0.547-3.143c-0.171-0.804-0.595-1.597-0.88-2.365c-0.368-0.979-0.614-2.018-0.679-3.063      c-0.042-0.757,0.013-1.624,0.395-2.28c0.388-0.671,1.053-1.095,1.552-1.646c0.366-0.395,0.577-0.833,0.708-1.316      c0.122-0.446,0.179-0.914,0.211-1.375c0.086-1.023-0.022-5.343-0.018-6.433c-0.042-2.011-0.15-4.103-0.514-6.082      c-0.414-2.406-1.658-5.981-2.373-8.335c-0.907-2.96-1.451-6.073-1.781-9.15c-0.517-4.621-0.69-10.895-0.866-15.598      c-0.075-4.672-0.987-33.397-0.82-37.397c0.05-2.105,0.171-4.316,0.442-6.403c0.348-2.775,1.046-5.91,1.483-8.675      c0.293-1.733,0.397-3.49,0.381-5.248"
   id="path143" />
				<path
   fill="none"
   stroke="#FB8604"
   stroke-width="3.25"
   stroke-linecap="round"
   stroke-linejoin="round"
   d="M723.669,358.717      c-0.056-0.665-0.122-1.328-0.196-1.988c-0.65,0.125-1.32,0.233-1.984,0.241"
   id="path145" />
				
					<path
   fill="none"
   stroke="#FB8604"
   stroke-width="3.25"
   stroke-linecap="round"
   stroke-linejoin="round"
   stroke-dasharray="4.1523,7.2665"
   d="      M718.711,351.4c0.179-2.03,0.596-4.359,0.813-6.06c0.208-1.629,0.372-3.313,0.303-4.955c-0.073-2.223-0.692-5.133-1.065-7.342      c-0.941-5.466-0.476-11.173-0.021-16.672c1.313-12.568,2.773-27.698,4.661-40.812"
   id="path147" />
				<path
   fill="none"
   stroke="#FB8604"
   stroke-width="3.25"
   stroke-linecap="round"
   stroke-linejoin="round"
   d="M723.938,271.967      c0.103-0.665,0.208-1.324,0.313-1.975c-0.651-0.011-1.339-0.082-1.979-0.26"
   id="path149" />
				
					<path
   fill="none"
   stroke="#FB8604"
   stroke-width="3.25"
   stroke-linecap="round"
   stroke-linejoin="round"
   stroke-dasharray="2.732,4.7811"
   d="      M718.591,266.82c-0.741-1.018-1.363-2.138-1.909-3.271c-0.193-0.399-0.375-0.805-0.543-1.217"
   id="path151" />
				<path
   fill="none"
   stroke="#FB8604"
   stroke-width="3.25"
   stroke-linecap="round"
   stroke-linejoin="round"
   d="M715.367,260.07      c-0.176-0.643-0.318-1.296-0.422-1.955c-0.63,0.135-1.334,0.282-1.983,0.183"
   id="path153" />
				
					<path
   fill="none"
   stroke="#FB8604"
   stroke-width="3.25"
   stroke-linecap="round"
   stroke-linejoin="round"
   stroke-dasharray="3.9548,6.9208"
   d="      M708.71,253.066c-0.057-0.159-0.104-0.319-0.139-0.481c-0.218-1.006-0.11-2.15-0.463-3.118c-0.25-0.734-0.685-1.503-0.946-2.233      c-0.217-0.594-0.302-1.169-0.359-1.783l-0.094-1.191c-0.053-0.899-0.377-1.808-0.487-2.683c-0.061-0.553,0.021-1.081,0.13-1.618      c0.263-1.184,0.516-2.486,0.909-3.632c-0.386-1.714-0.662-3.536-0.863-5.282l-0.197-2.09c-0.035-0.38-0.126-0.765-0.184-1.137      c-0.288-2.058-0.5-6.31-0.659-8.439c-0.383-6.057-0.478-12.252,0.36-18.275c0.302-2.248,0.703-4.58,1.255-6.78      c0.206-0.824,0.56-1.967,0.753-2.794c0.201-0.845,0.352-1.769,0.475-2.629c0.609-4.34,1.098-9.92,2.348-14.084      c0.717-2.411,1.861-4.765,3.712-6.51c0.86-0.824,1.843-1.532,2.851-2.164c2.901-1.783,7.592-3.949,10.652-5.53      c1.839-0.887,3.835-1.796,5.735-2.532c1.907-0.751,6.112-2.134,8.098-2.818c1.349-0.479,2.781-1.029,4.082-1.622      c1.135-0.509,3.096-1.503,4.246-1.946c0.545-0.206,1.174-0.426,1.748-0.42c0.05,0.002,0.066,0.003,0.066,0.003      c0.048,0.004,0.064,0.005,0.064,0.005c0.047,0.005,0.062,0.008,0.062,0.008c0.037,0.006,0.058,0.01,0.058,0.01      c0.042,0.009,0.062,0.013,0.062,0.013c0.04,0.01,0.06,0.016,0.06,0.016c0.039,0.012,0.058,0.019,0.058,0.019      c0.038,0.014,0.056,0.021,0.056,0.021c0.037,0.016,0.054,0.024,0.054,0.024c0.036,0.017,0.053,0.026,0.053,0.026      c0.035,0.019,0.052,0.029,0.052,0.029c0.05,0.031,0.066,0.042,0.066,0.042c0.1,0.096,0.124,0.007,0.272-0.107      c0.085-0.075,0.199-0.177,0.282-0.254c0.337-0.313,0.665-0.653,0.96-1.007c0.518-0.621,0.956-1.318,1.271-2.064      c0.47-1.111,0.708-2.314,0.831-3.51c0.238-2.389,0.032-4.833-0.242-7.21c-0.362-3.022-0.841-6.135-1.535-9.099      c-1.254-1.628-2.113-3.481-2.75-5.42"
   id="path155" />
			</g>
		</g>
	</g>
</g>
<g
   id="AG-DIAGRAM"
   style="filter:url(#filter1908)">
	<g
   id="POLYLINE_9_">
		<g
   id="g171">
			<g
   id="g169">
				
					<line
   fill="none"
   stroke="#FB8604"
   stroke-width="3.25"
   stroke-linecap="round"
   stroke-linejoin="round"
   x1="81.967"
   y1="627.528"
   x2="83.967"
   y2="627.528"
   id="line163" />
				
					<line
   fill="none"
   stroke="#FB8604"
   stroke-width="3.25"
   stroke-linecap="round"
   stroke-linejoin="round"
   stroke-dasharray="4.0003,7.0006"
   x1="90.968"
   y1="627.528"
   x2="912.532"
   y2="627.528"
   id="line165" />
				
					<line
   fill="none"
   stroke="#FB8604"
   stroke-width="3.25"
   stroke-linecap="round"
   stroke-linejoin="round"
   x1="916.033"
   y1="627.528"
   x2="918.033"
   y2="627.528"
   id="line167" />
			</g>
		</g>
	</g>
</g>
<g
   id="AG-DETAILS"
   style="filter:url(#filter1892)">
</g>
<g
   id="X-VPRT"
   style="filter:url(#filter1876)">
</g>
<g
   id="AG-ANIMALS"
   style="filter:url(#filter1860)">
	<g
   id="POLYLINE_631_">
		
			<path
   fill="none"
   stroke="#FB8604"
   stroke-width="2.75"
   stroke-linecap="round"
   stroke-linejoin="round"
   stroke-miterlimit="10"
   d="    M355.839,566.231c1.433,15.093,3.478,32.355,3.016,47.434c-0.017,1.595,0.045,3.221,0.349,4.79    c0.234,1.187,0.644,2.474,1.443,3.387c1.452,1.648,3.232,3.014,5.144,4.085c1.147,0.599,2.432,0.898,3.699,1.12    c1.402,0.236,2.854,0.356,4.274,0.422c1.613,0.109,17.029,0.044,19.021,0.06c2.127-0.01,4.346-0.049,6.455-0.336    c0.961-0.15,2.074-0.32,2.889-0.845c0.042-0.03,0.056-0.04,0.056-0.04c0.039-0.03,0.052-0.04,0.052-0.04    c0.049-0.041,0.061-0.051,0.061-0.051c0.034-0.031,0.056-0.053,0.056-0.053c0.043-0.044,0.065-0.066,0.065-0.066    c0.042-0.047,0.063-0.07,0.063-0.07c0.47-0.568,0.658-1.225,0.812-1.915c0.191-0.924,0.242-1.887,0.251-2.83    c-0.003-0.938-0.013-1.9-0.169-2.826c-0.18-1.122-0.619-2.307-1.371-3.157c-0.645-0.736-1.419-1.193-2.311-1.487    c-3.636-1.029-7.633-1.746-11.328-2.539c-1.194-0.281-2.423-0.611-3.564-1.063c-0.608-0.245-1.224-0.53-1.759-0.911    c-0.612-0.472-0.969-1.086-1.315-1.739c-0.436-0.855-0.768-1.782-1.057-2.695c-0.777-2.547-1.338-5.202-1.634-7.849    c-0.432-3.847-0.356-7.781,0.02-11.63c0.689-7.494,0.752-16.327,0.84-23.879"
   id="path177" />
	</g>
	<g
   id="POLYLINE_630_">
		
			<path
   fill="none"
   stroke="#FB8604"
   stroke-width="2.75"
   stroke-linecap="round"
   stroke-linejoin="round"
   stroke-miterlimit="10"
   d="    M324.223,476.429c-0.536,2.933-0.959,5.987-1.102,8.966c-0.249,5.424,0.188,10.955,0.863,16.336    c0.283,2.053,0.606,4.198,1.148,6.197c0.214,0.736,0.443,1.539,0.876,2.172c0.036,0.048,0.054,0.071,0.054,0.071    c0.036,0.043,0.054,0.064,0.054,0.064c0.036,0.039,0.054,0.057,0.054,0.057c0.036,0.034,0.055,0.05,0.055,0.05    c0.037,0.03,0.055,0.043,0.055,0.043c0.037,0.025,0.055,0.036,0.055,0.036c0.037,0.02,0.056,0.029,0.056,0.029    c0.037,0.015,0.056,0.021,0.056,0.021c0.05,0.013,0.056,0.014,0.056,0.014c0.05,0.007,0.056,0.007,0.056,0.007    c0.045,0.001,0.051,0.001,0.051,0.001c0.04-0.002,0.051-0.003,0.051-0.003c0.046-0.006,0.057-0.008,0.057-0.008    c0.046-0.01,0.057-0.013,0.057-0.013c0.046-0.013,0.058-0.016,0.058-0.016c0.046-0.015,0.07-0.023,0.07-0.023    c0.047-0.017,0.331-0.134,0.331-0.134c0.048-0.018,0.073-0.027,0.073-0.027c0.049-0.016,0.073-0.024,0.073-0.024    c0.049-0.014,0.061-0.017,0.061-0.017c0.049-0.011,0.062-0.013,0.062-0.013c0.05-0.008,0.062-0.009,0.062-0.009    c0.05-0.004,0.063-0.004,0.063-0.004c0.05,0.001,0.057,0.001,0.057,0.001c0.044,0.004,0.051,0.005,0.051,0.005    c0.045,0.008,0.051,0.009,0.051,0.009c0.045,0.012,0.051,0.014,0.051,0.014c0.045,0.016,0.052,0.019,0.052,0.019    c0.046,0.021,0.052,0.024,0.052,0.024c0.046,0.025,0.068,0.039,0.068,0.039c0.044,0.031,0.066,0.047,0.066,0.047    c0.045,0.037,0.067,0.056,0.067,0.056c0.045,0.042,0.067,0.065,0.067,0.065c0.416,0.457,0.637,0.961,0.89,1.498    c1.143,2.621,2.36,7.033,3.257,9.794c0.385,1.174,0.799,2.416,1.298,3.546c0.261,0.573,0.578,1.242,1.034,1.66    c0.037,0.033,0.055,0.049,0.055,0.049c0.304,0.261,0.624,0.368,0.966,0.507c0.907,0.344,1.358,1.169,1.785,1.954    c1.577,3.063,3.448,9.034,4.664,12.323c0.614,1.616,1.217,3.382,2.103,4.87c0.205,0.333,0.461,0.646,0.735,0.861    c0.292,0.24,0.634,0.384,0.91,0.608c0.046,0.038,0.061,0.051,0.061,0.051c0.046,0.041,0.061,0.055,0.061,0.055    c0.046,0.044,0.061,0.059,0.061,0.059c0.356,0.365,0.536,0.737,0.742,1.167c0.312,0.679,0.584,1.446,0.827,2.153    c0,0,2.218,6.89,2.218,6.89c0.569,1.643,1.184,3.33,2.001,4.867c0.466,0.854,1.047,1.795,1.846,2.346    c1.256,0.877,2.805,0.389,4.161,0.121c0.591-0.119,1.28-0.188,1.857-0.085c1.277,0.21,2.534,0.88,3.781,1.201    c1.17,0.331,2.402,0.363,3.601,0.191c3.034-0.447,5.974-1.662,8.709-3.016c1.741-0.897,3.546-1.869,4.776-3.437    c0.777-0.986,1.265-2.168,1.636-3.359c1.098-3.741,1.63-8.746,2.668-12.535c0.463-1.781,1.035-3.576,1.769-5.265    c0.646-1.488,1.445-2.947,2.312-4.317c1.908-3.012,4.317-5.93,6.582-8.683c2.779-3.346,5.932-7.034,8.967-10.142    c3.139-3.191,6.487-6.303,10.337-8.623c2.111-1.263,4.415-2.22,6.743-3.003l5.974-1.905c5.423-1.767,10.409-4.715,14.94-8.145    c4.784-3.627,9.112-7.953,12.29-13.072c3.359-5.263,5.884-11.976,8.987-17.388c1.212-2.084,2.561-4.161,4.376-5.773    c1.12-0.997,2.419-1.795,3.801-2.374c1.971-0.832,4.118-1.26,6.217-1.631c4.041-0.656,9.687-1.399,13.554-2.534    c4.642-1.297,10.395-3.602,15.068-4.743c4.482-1.149,9.623-1.147,13.693-3.562c2.333-1.37,4.189-3.422,5.764-5.593    c2.441-3.415,4.287-7.263,5.676-11.215"
   id="path180" />
	</g>
	<g
   id="POLYLINE_629_">
		
			<path
   fill="none"
   stroke="#FB8604"
   stroke-width="2.75"
   stroke-linecap="round"
   stroke-linejoin="round"
   stroke-miterlimit="10"
   d="    M160.034,571.48c-0.187,4.066,0.157,8.182,1.047,12.155c0.335,1.496,0.763,3.039,1.246,4.495    c0.246,0.806,3.903,10.386,4.308,11.441c2.793,6.83,6.215,16.659,9.583,23.12c0.504,0.93,1.038,1.923,1.729,2.724    c0.77,0.841,1.792,1.241,2.848,1.542c1.513,0.405,3.102,0.526,4.662,0.564c7.801-0.014,21.627,0.067,29.433-0.029    c0.983-0.067,1.982-0.211,2.904-0.57c0.683-0.257,1.386-0.723,1.785-1.304c0.38-0.538,0.524-1.096,0.566-1.724    c0.026-0.408-0.027-0.854-0.052-1.262c-0.071-0.852-0.186-1.721-0.36-2.558c-0.361-1.788-1.064-3.524-2.17-4.983    c-0.49-0.644-1.124-1.258-1.85-1.53c-0.389-0.14-0.764-0.174-1.165-0.216c-4.869-0.307-9.801,0.6-14.673,0.373    c-1.487-0.067-3.002-0.193-4.437-0.607c-1.86-0.569-3.251-2.07-4.369-3.596c-1.345-1.875-2.379-3.976-3.293-6.089    c-1.572-3.68-2.653-7.598-3.322-11.541c-0.333-2.021-0.562-4.095-0.474-6.146c0.062-1.3,0.251-2.617,0.75-3.826"
   id="path183" />
	</g>
	<g
   id="POLYLINE_628_">
		
			<path
   fill="none"
   stroke="#FB8604"
   stroke-width="2.75"
   stroke-linecap="round"
   stroke-linejoin="round"
   stroke-miterlimit="10"
   d="    M437.759,373.061c-8.239,0.998-16.187,4.026-23.161,8.499c-2.432,1.56-4.796,3.306-6.925,5.262    c-1.337,1.199-2.75,2.854-3.945,4.206c-1.106,1.24-2.337,2.397-3.748,3.282c-1.346,0.854-2.825,1.516-4.315,2.078    c-2.031,0.76-4.19,1.346-6.313,1.792c-4.124,0.847-8.392,1.249-12.599,1.004c-3.292-0.194-6.59-0.864-9.78-1.683    c-2.89-0.754-7.94-2.22-10.812-2.702c-1.824-0.325-3.734-0.508-5.583-0.611c-5.341-0.25-11.662-0.195-16.911-1.156    c-2.891-0.496-5.885-1.228-8.711-2.011c-6.637-1.837-19.781-6.319-26.467-8.479c-7.044-2.214-14.441-4.185-21.693-5.569    c-3.91-0.723-7.953-1.372-11.929-1.498c-1.27-0.029-2.568-0.01-3.823,0.2c-1.199,0.188-2.462,0.666-3.609,1.063    c-2.623,0.932-5.472,1.074-8.23,1.212l-15.162,0.479c-6.438,0.331-13.004,0.91-19.259,2.515c-3.559,0.918-7.045,2.236-10.341,3.86    c-5.731,2.81-10.992,6.616-15.92,10.65c-4.171,3.502-15.438,12.914-19.369,16.523c-6.563,5.981-12.49,12.792-17.301,20.263    c-0.706,1.13-1.431,2.334-1.993,3.544c-0.292,0.651-0.615,1.371-0.648,2.082c0,0.029,0,0.056,0,0.056    c0.001,0.027,0.003,0.054,0.003,0.054c0.002,0.026,0.005,0.052,0.005,0.052c0.007,0.05,0.011,0.073,0.011,0.073    c0.01,0.046,0.017,0.068,0.017,0.068c0.014,0.042,0.018,0.052,0.018,0.052c0.021,0.048,0.025,0.057,0.025,0.057    c0.024,0.044,0.029,0.052,0.029,0.052c0.033,0.048,0.039,0.056,0.039,0.056c0.037,0.044,0.044,0.051,0.044,0.051    c0.048,0.046,0.055,0.053,0.055,0.053c0.036,0.031,0.051,0.042,0.051,0.042c0.046,0.034,0.061,0.045,0.061,0.045    c0.047,0.032,0.205,0.134,0.205,0.134c0.046,0.031,0.061,0.041,0.061,0.041c0.044,0.032,0.058,0.043,0.058,0.043    c0.048,0.04,0.055,0.046,0.055,0.046c0.049,0.05,0.055,0.057,0.055,0.057c0.038,0.049,0.043,0.056,0.043,0.056    c0.029,0.05,0.031,0.054,0.031,0.054c0.02,0.045,0.024,0.057,0.024,0.057c0.015,0.049,0.018,0.062,0.018,0.062    c0.008,0.04,0.01,0.054,0.01,0.054c0.005,0.042,0.006,0.057,0.006,0.057c0.002,0.045,0.002,0.06,0.002,0.06    c-0.001,0.047-0.002,0.063-0.002,0.063c-0.004,0.049-0.006,0.066-0.006,0.066c-0.004,0.034-0.007,0.051-0.007,0.051    c-0.106,0.595-0.433,1.098-0.745,1.553c-0.457,0.639-1.008,1.218-1.598,1.735c-1.026,0.895-2.203,1.626-3.457,2.156    c-1.287,0.542-2.669,0.874-4.041,1.116c-3.193,0.571-7.53,0.666-10.765,1.032c-0.927,0.112-1.877,0.256-2.778,0.505    c-0.818,0.226-1.72,0.584-2.303,1.18c-0.97,0.98-0.971,2.41-0.702,3.664c0.25,1.15,0.715,2.249,1.241,3.298    c2.203,4.376,6.158,8.67,9.154,12.533c0.79,1.028,1.567,2.109,2.174,3.257c0.67,1.224,1.258,2.928,1.751,4.236    c0.411,3.219,1.131,6.446,2.418,9.434c1.837,4.245,4.986,8.522,7.28,12.532c3.391,5.662,7.354,15.303,10.129,21.38    c0.863,1.829,1.813,3.834,2.864,5.554c0.512,0.811,1.088,1.72,1.847,2.302c0.036,0.026,0.072,0.051,0.072,0.051    c0.036,0.024,0.071,0.046,0.071,0.046c0.035,0.021,0.07,0.041,0.07,0.041c0.039,0.021,0.059,0.031,0.059,0.031    c0.039,0.019,0.058,0.028,0.058,0.028c0.039,0.017,0.058,0.025,0.058,0.025c0.038,0.015,0.057,0.022,0.057,0.022    c0.038,0.013,0.057,0.02,0.057,0.02c0.038,0.012,0.056,0.017,0.056,0.017c0.037,0.01,0.056,0.015,0.056,0.015    c0.037,0.008,0.055,0.012,0.055,0.012c0.212,0.042,0.384,0.039,0.568,0.031l0.339-0.021c0.083-0.005,0.208-0.006,0.266-0.003    c0.05,0.003,0.066,0.004,0.066,0.004c0.049,0.005,0.066,0.007,0.066,0.007c0.049,0.007,0.066,0.01,0.066,0.01    c0.049,0.01,0.066,0.013,0.066,0.013c0.049,0.012,0.066,0.017,0.066,0.017c0.049,0.016,0.066,0.021,0.066,0.021    c0.05,0.019,0.066,0.026,0.066,0.026c0.05,0.022,0.066,0.031,0.066,0.031c0.05,0.026,0.066,0.036,0.066,0.036    c0.037,0.022,0.055,0.034,0.055,0.034c0.037,0.025,0.055,0.038,0.055,0.038c0.037,0.027,0.055,0.041,0.055,0.041    c0.037,0.03,0.056,0.045,0.056,0.045c0.333,0.29,0.528,0.58,0.749,0.917c0.25,0.394,0.474,0.823,0.676,1.244    c1.115,2.343,2,5.292,2.801,7.775c0.562,1.851,1.311,3.816,0.921,5.774c-0.148,0.782-0.452,1.532-0.802,2.243    c-1.231,2.49-3.911,6.059-5.459,8.404c-2.193,3.3-4.241,6.799-5.444,10.593c-0.428,1.426-0.784,2.942-0.594,4.436    c0.087,0.648,0.317,1.268,0.728,1.733c0.368,0.425,0.869,0.674,1.362,0.832c1.59,0.496,3.443,0.462,4.949,1.213    c0.873,0.432,1.502,1.147,2.032,1.936c0.99,1.446,1.639,3.342,2.882,4.597c0.413,0.404,0.86,0.669,1.376,0.806    c0.817,0.21,1.623,0.133,2.438,0.003c1.584-0.261,3.542-0.962,5.114-1.298c0.904-0.181,1.951-0.363,2.812,0.026    c1.139,0.55,1.547,1.814,2.362,2.681c0.049,0.049,0.073,0.073,0.073,0.073c0.076,0.07,0.088,0.079,0.126,0.111    c0.039,0.031,0.052,0.041,0.052,0.041c0.039,0.029,0.053,0.038,0.053,0.038c0.04,0.027,0.054,0.036,0.054,0.036    c0.041,0.025,0.055,0.034,0.055,0.034c0.042,0.023,0.056,0.031,0.056,0.031c0.042,0.021,0.057,0.028,0.057,0.028    c0.043,0.019,0.058,0.025,0.058,0.025c0.044,0.017,0.059,0.023,0.059,0.023c0.045,0.015,0.06,0.02,0.06,0.02    c0.046,0.013,0.062,0.017,0.062,0.017c0.047,0.01,0.063,0.013,0.063,0.013c0.048,0.008,0.065,0.01,0.065,0.01    c0.036,0.004,0.072,0.007,0.072,0.007c0.036,0.002,0.073,0.003,0.073,0.003c0.037,0,0.075-0.001,0.075-0.001    c0.038-0.002,0.077-0.004,0.077-0.004c0.039-0.004,0.078-0.008,0.078-0.008c0.04-0.005,0.08-0.012,0.08-0.012    c0.041-0.007,0.082-0.015,0.082-0.015c0.041-0.009,0.083-0.019,0.083-0.019c0.856-0.239,1.511-0.726,2.2-1.236    c1.162-0.897,2.271-1.965,3.318-2.993c2.91-2.891,7.419-7.833,10.627-10.262c1.464-1.124,3.09-2.054,4.773-2.808    c1.475-0.669,3.383-1.391,4.826-2.124c1.003-0.504,1.981-1.094,2.886-1.758c2.318-1.714,4.31-3.933,6.241-6.062    c1.931-2.156,4.597-5.312,6.678-7.279c0.538-0.503,1.114-1.008,1.72-1.428c0.446-0.308,0.97-0.609,1.466-0.728    c0.041-0.009,0.082-0.018,0.082-0.018c0.041-0.008,0.081-0.015,0.081-0.015c0.04-0.006,0.08-0.011,0.08-0.011    c0.039-0.004,0.078-0.007,0.078-0.007c0.104-0.007,0.19-0.004,0.26,0.001c0.05,0.005,0.067,0.007,0.067,0.007    c0.05,0.007,0.066,0.01,0.066,0.01c0.049,0.009,0.065,0.012,0.065,0.012c0.048,0.011,0.064,0.015,0.064,0.015    c0.048,0.013,0.064,0.017,0.064,0.017c0.047,0.014,0.063,0.019,0.063,0.019c0.682,0.234,1.197,0.798,1.729,1.249    c0.443,0.391,0.993,0.774,1.557,0.894c0.552,0.123,1.085,0.055,1.598-0.065c0.554-0.136,1.09-0.355,1.6-0.609    c1.779-0.906,3.336-2.21,4.735-3.621c2.015-2.056,3.722-4.455,4.817-7.126c1.803-4.328,1.976-9.129,1.697-13.751    c-0.384-6.08-1.277-12.238-3.438-17.96c-0.912-2.455-2.209-4.858-3.521-7.123c-0.822-1.426-2.016-3.393-2.687-4.894    c-0.239-0.541-0.457-1.108-0.573-1.69c-0.101-0.499-0.118-1.015-0.097-1.523c0.031-0.586,0.08-1.331,0.051-1.905    c-0.02-0.45-0.082-0.903-0.175-1.344c-0.234-1.102-0.62-2.181-1.049-3.221c-0.661-1.587-1.48-3.168-2.342-4.656    c-5.875-10.16-14.786-17.705-25.594-22.205"
   id="path186" />
	</g>
	<g
   id="POLYLINE_627_">
		
			<path
   fill="none"
   stroke="#FB8604"
   stroke-width="2.75"
   stroke-linecap="round"
   stroke-linejoin="round"
   stroke-miterlimit="10"
   d="    M533.703,412.099c-1.903-10.016-12.355-17.622-20.665-22.497c-6.146-3.578-12.779-6.678-19.346-9.403    c-2.686-1.102-5.486-2.208-8.336-2.795c-4.828-1.021-11.398-0.707-16.314-1.086c-5.834-0.314-12.032-1.991-17.786-2.926"
   id="path189" />
	</g>
	<g
   id="POLYLINE_626_">
		
			<path
   fill="none"
   stroke="#FB8604"
   stroke-width="2.75"
   stroke-linecap="round"
   stroke-linejoin="round"
   stroke-miterlimit="10"
   d="    M531.962,426.854c-0.043,0.02-0.057,0.027-0.057,0.027c-0.043,0.018-0.057,0.024-0.057,0.024    c-0.043,0.016-0.058,0.021-0.058,0.021c-0.043,0.014-0.058,0.018-0.058,0.018c-0.044,0.011-0.058,0.015-0.058,0.015    c-0.044,0.009-0.059,0.012-0.059,0.012c-0.044,0.007-0.059,0.009-0.059,0.009c-0.044,0.005-0.059,0.006-0.059,0.006    c-0.045,0.003-0.06,0.004-0.06,0.004c-0.045,0.001-0.06,0.001-0.06,0.001c-0.045-0.001-0.06-0.002-0.06-0.002    c-0.045-0.003-0.061-0.005-0.061-0.005c-0.046-0.005-0.061-0.007-0.061-0.007c-0.046-0.007-0.061-0.01-0.061-0.01    c-0.046-0.009-0.061-0.012-0.061-0.012c-0.046-0.011-0.062-0.015-0.062-0.015c-0.478-0.131-0.856-0.418-1.198-0.721    c-0.4-0.363-0.753-0.783-1.074-1.217c-1.218-1.686-2.137-3.603-2.732-5.595c-0.246-0.854-0.43-1.739-0.466-2.629    c-0.02-0.556,0.018-1.123,0.184-1.657c0.272-0.899,0.948-1.557,1.736-1.977c0.995-0.529,2.114-0.793,3.215-0.996    c0.734-0.124,1.49-0.202,2.235-0.159c0.568,0.034,1.2,0.153,1.664,0.463c0.05,0.034,0.074,0.052,0.074,0.052    c0.047,0.036,0.07,0.054,0.07,0.054c0.045,0.038,0.066,0.057,0.066,0.057c0.042,0.04,0.063,0.06,0.063,0.06    c0.04,0.042,0.06,0.063,0.06,0.063c0.038,0.044,0.057,0.066,0.057,0.066c0.036,0.046,0.054,0.069,0.054,0.069    c0.034,0.048,0.051,0.072,0.051,0.072c0.417,0.652,0.45,1.392,0.454,2.128c-0.02,1.189-0.217,2.435-0.404,3.609    c-0.302,1.757-0.686,3.538-1.279,5.221c-0.309,0.844-0.679,1.742-1.257,2.433c-0.107,0.125-0.202,0.216-0.285,0.287    c-0.039,0.032-0.058,0.048-0.058,0.048c-0.039,0.03-0.059,0.045-0.059,0.045c-0.04,0.028-0.059,0.041-0.059,0.041    c-0.04,0.026-0.06,0.038-0.06,0.038C532.023,426.822,532.002,426.833,531.962,426.854z"
   id="path192" />
	</g>
	<g
   id="POLYLINE_625_">
		
			<path
   fill="none"
   stroke="#FB8604"
   stroke-width="2.75"
   stroke-linecap="round"
   stroke-linejoin="round"
   stroke-miterlimit="10"
   d="    M438.568,396.905c-1.501-1.719-2.836-3.621-3.805-5.691c-0.78-1.672-1.324-3.483-1.412-5.333c-0.122-2.618,0.709-5.179,1.75-7.55    c1.018-2.288,2.46-4.897,3.65-7.11c0.838-1.444,1.886-3.26,3.645-3.582c1.127-0.18,2.18,0.265,3.143,0.772    c1.865,1.035,3.463,2.507,4.907,4.063c2.661,2.946,4.98,6.409,5.764,10.357c0.594,2.892,0.292,5.887-0.19,8.773"
   id="path195" />
	</g>
	<g
   id="POLYLINE_624_">
		
			<path
   fill="none"
   stroke="#FB8604"
   stroke-width="2.75"
   stroke-linecap="round"
   stroke-linejoin="round"
   stroke-miterlimit="10"
   d="    M246.899,537.152c4.148,0.618,8.946,1.348,13.102,1.547c3.694,0.202,7.469,0.096,11.139-0.381    c6.484-0.791,14.237-3.316,20.593-4.883c1.164-0.276,2.41-0.555,3.599-0.694c0.64-0.069,1.363-0.122,1.979,0.028    c0.213,0.055,0.387,0.133,0.537,0.227c0.05,0.032,0.066,0.043,0.066,0.043c0.048,0.033,0.063,0.045,0.063,0.045    c0.155,0.117,0.24,0.201,0.352,0.314l0.317,0.331c0.414,0.442,0.913,0.693,1.468,0.83c0.542,0.142,1.112,0.207,1.67,0.248    c2.783,0.161,5.669-0.161,8.438-0.44c5.944-0.715,12.506-1.446,18.353-2.645c2.956-0.622,5.946-1.378,8.722-2.587"
   id="path198" />
	</g>
</g>
<g
   id="AG-OUTLINE"
   style="filter:url(#filter1844)">
	<g
   id="POLYLINE">
		
			<path
   fill="none"
   stroke="#FB8604"
   stroke-width="3.5"
   stroke-linecap="round"
   stroke-linejoin="round"
   stroke-miterlimit="10"
   d="    M451.256,373.393c-1.555-1.818-3.302-3.537-5.359-4.78c-0.874-0.509-1.833-0.961-2.857-1.015c-1.393-0.08-2.462,0.885-3.209,1.912    c-0.756,1.006-1.469,2.438-2.071,3.55c-8.239,0.998-16.187,4.026-23.161,8.499c-2.432,1.56-4.796,3.306-6.925,5.262    c-1.337,1.199-2.75,2.854-3.945,4.206c-1.106,1.24-2.337,2.397-3.748,3.282c-1.346,0.854-2.825,1.516-4.315,2.078    c-2.031,0.76-4.19,1.346-6.313,1.792c-4.124,0.847-8.392,1.249-12.599,1.004c-3.292-0.194-6.59-0.864-9.78-1.683    c-2.89-0.754-7.94-2.22-10.812-2.702c-1.824-0.325-3.734-0.508-5.583-0.611c-5.341-0.25-11.662-0.195-16.911-1.156    c-2.891-0.496-5.885-1.228-8.711-2.011c-6.637-1.837-19.781-6.319-26.467-8.479c-7.044-2.214-14.441-4.185-21.693-5.569    c-3.91-0.723-7.953-1.372-11.929-1.498c-1.27-0.029-2.568-0.01-3.823,0.2c-1.199,0.188-2.462,0.666-3.609,1.063    c-2.623,0.932-5.472,1.074-8.23,1.212l-15.162,0.479c-6.438,0.331-13.004,0.91-19.259,2.515c-3.559,0.918-7.045,2.236-10.341,3.86    c-5.731,2.81-10.992,6.616-15.92,10.65c-4.171,3.502-15.438,12.914-19.369,16.523c-6.563,5.981-12.49,12.792-17.301,20.263    c-0.706,1.13-1.431,2.334-1.993,3.544c-0.292,0.651-0.615,1.371-0.648,2.082c0,0.029,0,0.056,0,0.056    c0.001,0.027,0.003,0.054,0.003,0.054c0.002,0.026,0.005,0.052,0.005,0.052c0.007,0.05,0.011,0.073,0.011,0.073    c0.01,0.046,0.017,0.068,0.017,0.068c0.014,0.042,0.018,0.052,0.018,0.052c0.021,0.048,0.025,0.057,0.025,0.057    c0.024,0.044,0.029,0.052,0.029,0.052c0.033,0.048,0.039,0.056,0.039,0.056c0.037,0.044,0.044,0.051,0.044,0.051    c0.048,0.046,0.055,0.053,0.055,0.053c0.036,0.031,0.051,0.042,0.051,0.042c0.046,0.034,0.061,0.045,0.061,0.045    c0.047,0.032,0.205,0.134,0.205,0.134c0.046,0.031,0.061,0.041,0.061,0.041c0.044,0.032,0.058,0.043,0.058,0.043    c0.048,0.04,0.055,0.046,0.055,0.046c0.049,0.05,0.055,0.057,0.055,0.057c0.038,0.049,0.043,0.056,0.043,0.056    c0.029,0.05,0.031,0.054,0.031,0.054c0.02,0.045,0.024,0.057,0.024,0.057c0.015,0.049,0.018,0.062,0.018,0.062    c0.008,0.04,0.01,0.054,0.01,0.054c0.005,0.042,0.006,0.057,0.006,0.057c0.002,0.045,0.002,0.06,0.002,0.06    c-0.001,0.047-0.002,0.063-0.002,0.063c-0.004,0.049-0.006,0.066-0.006,0.066c-0.004,0.034-0.007,0.051-0.007,0.051    c-0.106,0.595-0.433,1.098-0.745,1.553c-0.457,0.639-1.008,1.218-1.598,1.735c-1.026,0.895-2.203,1.626-3.457,2.156    c-1.287,0.542-2.669,0.874-4.041,1.116c-3.193,0.571-7.53,0.666-10.765,1.032c-0.927,0.112-1.877,0.256-2.778,0.505    c-0.818,0.226-1.72,0.584-2.303,1.18c-0.97,0.98-0.971,2.41-0.702,3.664c0.25,1.15,0.715,2.249,1.241,3.298    c2.203,4.376,6.158,8.67,9.154,12.533c0.79,1.028,1.567,2.109,2.174,3.257c0.67,1.224,1.258,2.928,1.751,4.236    c0.411,3.219,1.131,6.446,2.418,9.434c1.837,4.245,4.986,8.522,7.28,12.532c3.391,5.662,7.354,15.303,10.129,21.38    c0.863,1.829,1.813,3.834,2.864,5.554c0.512,0.811,1.088,1.72,1.847,2.302c0.036,0.026,0.072,0.051,0.072,0.051    c0.036,0.024,0.071,0.046,0.071,0.046c0.035,0.021,0.07,0.041,0.07,0.041c0.039,0.021,0.059,0.031,0.059,0.031    c0.039,0.019,0.058,0.028,0.058,0.028c0.039,0.017,0.058,0.025,0.058,0.025c0.038,0.015,0.057,0.022,0.057,0.022    c0.038,0.013,0.057,0.02,0.057,0.02c0.038,0.012,0.056,0.017,0.056,0.017c0.037,0.01,0.056,0.015,0.056,0.015    c0.037,0.008,0.055,0.012,0.055,0.012c0.212,0.042,0.384,0.039,0.568,0.031l0.339-0.021c0.083-0.005,0.208-0.006,0.266-0.003    c0.05,0.003,0.066,0.004,0.066,0.004c0.049,0.005,0.066,0.007,0.066,0.007c0.049,0.007,0.066,0.01,0.066,0.01    c0.049,0.01,0.066,0.013,0.066,0.013c0.049,0.012,0.066,0.017,0.066,0.017c0.049,0.016,0.066,0.021,0.066,0.021    c0.05,0.019,0.066,0.026,0.066,0.026c0.05,0.022,0.066,0.031,0.066,0.031c0.05,0.026,0.066,0.036,0.066,0.036    c0.037,0.022,0.055,0.034,0.055,0.034c0.037,0.025,0.055,0.038,0.055,0.038c0.037,0.027,0.055,0.041,0.055,0.041    c0.037,0.03,0.056,0.045,0.056,0.045c0.333,0.29,0.528,0.58,0.749,0.917c0.25,0.394,0.474,0.823,0.676,1.244    c1.115,2.343,2,5.292,2.801,7.775c0.562,1.851,1.311,3.816,0.921,5.774c-0.148,0.782-0.452,1.532-0.802,2.243    c-1.231,2.49-3.911,6.059-5.459,8.404c-1.608,2.41-3.137,4.955-4.308,7.607c-0.651,1.481-1.229,3.026-1.559,4.613    c-0.405,1.948-0.493,4.568,1.762,5.32c-0.187,4.066,0.157,8.182,1.047,12.155c0.335,1.496,0.763,3.039,1.246,4.495    c0.246,0.806,3.903,10.386,4.308,11.441c2.793,6.83,6.215,16.659,9.583,23.12c0.504,0.93,1.038,1.923,1.729,2.724    c0.77,0.841,1.792,1.241,2.848,1.542c1.513,0.405,3.102,0.526,4.662,0.564c7.801-0.014,21.627,0.067,29.433-0.029    c0.983-0.067,1.982-0.211,2.904-0.57c0.683-0.257,1.386-0.723,1.785-1.304c0.38-0.538,0.524-1.096,0.566-1.724    c0.026-0.408-0.027-0.854-0.052-1.262c-0.071-0.852-0.186-1.721-0.36-2.558c-0.361-1.788-1.064-3.524-2.17-4.983    c-0.49-0.644-1.124-1.258-1.85-1.53c-0.389-0.14-0.764-0.174-1.165-0.216c-4.869-0.307-9.801,0.6-14.673,0.373    c-1.487-0.067-3.002-0.193-4.437-0.607c-1.86-0.569-3.251-2.07-4.369-3.596c-1.345-1.875-2.379-3.976-3.293-6.089    c-1.572-3.68-2.653-7.598-3.322-11.541c-0.333-2.021-0.562-4.095-0.474-6.146c0.062-1.3,0.251-2.617,0.75-3.826    c0.038,0.015,0.057,0.022,0.057,0.022c0.038,0.013,0.058,0.019,0.058,0.019c0.039,0.011,0.059,0.017,0.059,0.017    c0.04,0.009,0.06,0.014,0.06,0.014c0.066,0.012,0.083,0.013,0.118,0.018c0.036,0.003,0.072,0.005,0.072,0.005    c0.037,0.001,0.074,0.001,0.074,0.001c0.038-0.001,0.076-0.002,0.076-0.002c0.039-0.003,0.078-0.006,0.078-0.006    c0.039-0.005,0.079-0.01,0.079-0.01c0.04-0.006,0.081-0.014,0.081-0.014c0.041-0.008,0.082-0.017,0.082-0.017    c0.876-0.23,1.543-0.73,2.242-1.246c1.162-0.897,2.271-1.965,3.318-2.993c2.91-2.891,7.419-7.833,10.627-10.262    c1.464-1.124,3.09-2.054,4.773-2.808c1.475-0.669,3.383-1.391,4.826-2.124c1.003-0.504,1.981-1.094,2.886-1.758    c2.318-1.714,4.31-3.933,6.241-6.062c1.931-2.156,4.597-5.312,6.678-7.279c0.538-0.503,1.114-1.008,1.72-1.428    c0.446-0.308,0.97-0.609,1.466-0.728c0.041-0.009,0.082-0.018,0.082-0.018c0.041-0.008,0.081-0.015,0.081-0.015    c0.04-0.006,0.08-0.011,0.08-0.011c0.039-0.004,0.078-0.007,0.078-0.007c0.104-0.007,0.19-0.004,0.26,0.001    c0.05,0.005,0.067,0.007,0.067,0.007c0.05,0.007,0.066,0.01,0.066,0.01c0.049,0.009,0.065,0.012,0.065,0.012    c0.048,0.011,0.064,0.015,0.064,0.015c0.048,0.013,0.064,0.017,0.064,0.017c0.047,0.014,0.063,0.019,0.063,0.019    c0.682,0.234,1.197,0.798,1.729,1.249c0.496,0.438,1.115,0.855,1.763,0.932c0.739,0.093,1.409-0.075,2.083-0.315    c0.827-0.306,1.608-0.749,2.341-1.237c1.569-1.057,2.975-2.361,4.229-3.774c1.332-1.511,2.504-3.186,3.384-5    c4.148,0.618,8.946,1.348,13.102,1.547c3.694,0.202,7.469,0.096,11.139-0.381c6.484-0.791,14.237-3.316,20.593-4.883    c1.164-0.276,2.41-0.555,3.599-0.694c0.64-0.069,1.363-0.122,1.979,0.028c0.213,0.055,0.387,0.133,0.537,0.227    c0.05,0.032,0.066,0.043,0.066,0.043c0.048,0.033,0.063,0.045,0.063,0.045c0.155,0.117,0.24,0.201,0.352,0.314l0.317,0.331    c0.414,0.442,0.913,0.693,1.468,0.83c0.542,0.142,1.112,0.207,1.67,0.248c2.783,0.161,5.669-0.161,8.438-0.44    c5.944-0.715,12.506-1.446,18.353-2.645c2.956-0.622,5.946-1.378,8.722-2.587c0.509,0.898,0.932,1.903,1.323,2.86    c1.585,3.911,3.295,9.699,5.025,13.532c0.29,0.605,0.624,1.291,1.082,1.775c0.347,0.383,0.798,0.558,1.178,0.854    c0.046,0.038,0.061,0.051,0.061,0.051c0.046,0.041,0.061,0.055,0.061,0.055c0.046,0.044,0.061,0.059,0.061,0.059    c0.356,0.365,0.536,0.737,0.742,1.167c0.312,0.679,0.584,1.446,0.827,2.153c0,0,2.218,6.89,2.218,6.89    c0.662,1.895,1.356,3.84,2.401,5.561c0.417,0.669,0.954,1.38,1.624,1.763c0.607,0.355,1.279,0.431,1.938,0.376    c1.433,15.093,3.478,32.355,3.016,47.434c-0.017,1.595,0.045,3.221,0.349,4.79c0.234,1.187,0.644,2.474,1.443,3.387    c1.452,1.648,3.232,3.014,5.144,4.085c1.147,0.599,2.432,0.898,3.699,1.12c1.402,0.236,2.854,0.356,4.274,0.422    c1.613,0.109,17.029,0.044,19.021,0.06c2.127-0.01,4.346-0.049,6.455-0.336c0.961-0.15,2.074-0.32,2.889-0.845    c0.042-0.03,0.056-0.04,0.056-0.04c0.039-0.03,0.052-0.04,0.052-0.04c0.049-0.041,0.061-0.051,0.061-0.051    c0.034-0.031,0.056-0.053,0.056-0.053c0.043-0.044,0.065-0.066,0.065-0.066c0.042-0.047,0.063-0.07,0.063-0.07    c0.47-0.568,0.658-1.225,0.812-1.915c0.191-0.924,0.242-1.887,0.251-2.83c-0.003-0.938-0.013-1.9-0.169-2.826    c-0.18-1.122-0.619-2.307-1.371-3.157c-0.645-0.736-1.419-1.193-2.311-1.487c-3.636-1.029-7.633-1.746-11.328-2.539    c-1.194-0.281-2.423-0.611-3.564-1.063c-0.608-0.245-1.224-0.53-1.759-0.911c-0.612-0.472-0.969-1.086-1.315-1.739    c-0.436-0.855-0.768-1.782-1.057-2.695c-0.777-2.547-1.338-5.202-1.634-7.849c-0.432-3.847-0.356-7.781,0.02-11.63    c0.689-7.494,0.752-16.327,0.84-23.879c1.375-1.298,2.078-3.093,2.559-4.883c0.593-2.143,1.28-6.516,1.747-8.73    c0.533-2.568,1.192-5.165,2.171-7.601c0.992-2.487,2.383-4.819,3.927-7.001c2.183-3.08,4.897-6.275,7.321-9.18    c2.728-3.208,5.75-6.625,8.776-9.545c2.6-2.5,5.379-4.914,8.481-6.772c2.111-1.263,4.416-2.22,6.743-3.003l5.974-1.905    c5.423-1.767,10.409-4.715,14.94-8.145c4.784-3.627,9.112-7.953,12.29-13.072c3.359-5.263,5.884-11.976,8.987-17.388    c1.212-2.084,2.561-4.161,4.376-5.773c1.12-0.997,2.419-1.795,3.801-2.374c1.971-0.832,4.118-1.26,6.217-1.631    c4.041-0.656,9.687-1.399,13.554-2.534c4.642-1.297,10.395-3.602,15.068-4.743c4.482-1.149,9.623-1.147,13.693-3.562    c2.333-1.37,4.189-3.422,5.764-5.593c2.441-3.415,4.287-7.263,5.676-11.215c0.041-0.021,0.061-0.032,0.061-0.032    c0.04-0.023,0.06-0.036,0.06-0.036c0.04-0.026,0.06-0.039,0.06-0.039c0.04-0.028,0.059-0.043,0.059-0.043    c0.039-0.03,0.059-0.046,0.059-0.046c0.039-0.032,0.058-0.049,0.058-0.049c0.365-0.331,0.572-0.663,0.8-1.058    c0.262-0.471,0.477-0.981,0.664-1.486c0.63-1.731,1.025-3.568,1.338-5.38c0.187-1.175,0.383-2.419,0.404-3.609    c0.005-0.697-0.053-1.486-0.422-2.079c-0.032-0.05-0.049-0.074-0.049-0.074c-0.034-0.048-0.052-0.071-0.052-0.071    c-0.036-0.046-0.055-0.068-0.055-0.068c-0.038-0.044-0.058-0.065-0.058-0.065c-0.04-0.042-0.061-0.062-0.061-0.062    c-0.042-0.04-0.064-0.059-0.064-0.059c-0.045-0.038-0.068-0.056-0.068-0.056c-0.047-0.036-0.071-0.053-0.071-0.053    c-0.048-0.033-0.073-0.049-0.073-0.049c-0.276-0.177-0.565-0.273-0.85-0.339c-1.903-10.016-12.355-17.622-20.665-22.497    c-6.146-3.578-12.779-6.678-19.346-9.403c-2.686-1.102-5.486-2.208-8.336-2.795c-4.828-1.021-11.398-0.707-16.314-1.086    C463.207,376.005,457.01,374.328,451.256,373.393z"
   id="path202" />
	</g>
</g>
</svg>
